<svg width="15" height="8" viewBox="0 0 15 8" fill="none" xmlns="http://www.w3.org/2000/svg">
<path d="M12.05 2.04533C12.4918 1.46064 12.7 1 12.7 1L12.05 2.04533ZM12.05 2.04533C11.6298 2.60153 10.9982 3.27005 10.1334 3.76103M12.05 2.04533L10.1334 3.76103M12.05 2.04533L14 3.07077M7.5 4.45129C6.4548 4.45129 5.58111 4.16676 4.8666 3.76103M7.5 4.45129L4.8666 3.76103M7.5 4.45129C8.5452 4.45129 9.41886 4.16676 10.1334 3.76103M7.5 4.45129L10.1334 3.76103M7.5 4.45129V6.86719M4.8666 3.76103L2.95 5.8318M4.8666 3.76103C4.04798 3.29621 3.43831 2.67236 3.01908 2.13534M4.8666 3.76103L3.01908 2.13534M10.1334 3.76103L11.725 5.8318M3.01908 2.13534C2.52989 1.5086 2.3 1 2.3 1L3.01908 2.13534ZM3.01908 2.13534L1 3.07077" stroke="#3F414E" stroke-width="2" stroke-linecap="round" stroke-linejoin="round"/>
</svg>
