<svg width="21" height="17" viewBox="0 0 21 17" fill="none" xmlns="http://www.w3.org/2000/svg">
<path d="M0.8125 3.42643e-05C0.597012 3.42643e-05 0.390349 0.0856368 0.237976 0.23801C0.0856024 0.390383 0 0.597046 0 0.812534C0 1.02802 0.0856024 1.23468 0.237976 1.38706C0.390349 1.53943 0.597012 1.62503 0.8125 1.62503H2.61625L4.74825 10.1563C4.92944 10.8794 5.577 11.375 6.32206 11.375H16.4539C17.1876 11.375 17.8108 10.8875 18.0034 10.1807L20.1094 2.43753H18.408L16.4531 9.75003H6.32125L4.19006 1.21878C4.10203 0.868783 3.89909 0.558448 3.61374 0.337477C3.32839 0.116506 2.97715 -0.00231801 2.61625 3.42643e-05H0.8125ZM15.4375 11.375C14.1009 11.375 13 12.476 13 13.8125C13 15.1491 14.1009 16.25 15.4375 16.25C16.7741 16.25 17.875 15.1491 17.875 13.8125C17.875 12.476 16.7741 11.375 15.4375 11.375ZM8.125 11.375C6.78844 11.375 5.6875 12.476 5.6875 13.8125C5.6875 15.1491 6.78844 16.25 8.125 16.25C9.46156 16.25 10.5625 15.1491 10.5625 13.8125C10.5625 12.476 9.46156 11.375 8.125 11.375ZM10.5625 3.42643e-05V4.06253H8.125L11.375 7.31253L14.625 4.06253H12.1875V3.42643e-05H10.5625ZM8.125 13C8.58325 13 8.9375 13.3543 8.9375 13.8125C8.9375 14.2708 8.58325 14.625 8.125 14.625C7.66675 14.625 7.3125 14.2708 7.3125 13.8125C7.3125 13.3543 7.66675 13 8.125 13ZM15.4375 13C15.8958 13 16.25 13.3543 16.25 13.8125C16.25 14.2708 15.8958 14.625 15.4375 14.625C14.9792 14.625 14.625 14.2708 14.625 13.8125C14.625 13.3543 14.9792 13 15.4375 13Z" fill="#EC0C8C"/>
</svg>
