<svg width="10" height="16" viewBox="0 0 10 16" fill="none" xmlns="http://www.w3.org/2000/svg">
<path d="M3.38867 10.6348C3.38867 9.72331 3.49935 8.9974 3.7207 8.45703C3.94206 7.91667 4.3457 7.38607 4.93164 6.86523C5.52409 6.33789 5.91797 5.91146 6.11328 5.58594C6.30859 5.25391 6.40625 4.9056 6.40625 4.54102C6.40625 3.44076 5.89844 2.89062 4.88281 2.89062C4.40104 2.89062 4.01367 3.04036 3.7207 3.33984C3.43424 3.63281 3.28451 4.03971 3.27148 4.56055H0.439453C0.452474 3.31706 0.852865 2.34375 1.64062 1.64062C2.4349 0.9375 3.51562 0.585938 4.88281 0.585938C6.26302 0.585938 7.33398 0.921224 8.0957 1.5918C8.85742 2.25586 9.23828 3.19661 9.23828 4.41406C9.23828 4.96745 9.11458 5.49154 8.86719 5.98633C8.61979 6.47461 8.18685 7.01823 7.56836 7.61719L6.77734 8.36914C6.28255 8.8444 5.99935 9.40104 5.92773 10.0391L5.88867 10.6348H3.38867ZM3.10547 13.6328C3.10547 13.1966 3.25195 12.8385 3.54492 12.5586C3.8444 12.2721 4.22526 12.1289 4.6875 12.1289C5.14974 12.1289 5.52734 12.2721 5.82031 12.5586C6.11979 12.8385 6.26953 13.1966 6.26953 13.6328C6.26953 14.0625 6.12305 14.4173 5.83008 14.6973C5.54362 14.9772 5.16276 15.1172 4.6875 15.1172C4.21224 15.1172 3.82812 14.9772 3.53516 14.6973C3.2487 14.4173 3.10547 14.0625 3.10547 13.6328Z" fill="#EC0C8C"/>
</svg>
