<svg width="15" height="16" viewBox="0 0 15 16" fill="none" xmlns="http://www.w3.org/2000/svg">
<path d="M14.2126 7.84438C14.2126 7.21342 14.1651 6.75299 14.0623 6.27551H7.37921V9.12334H11.302C11.223 9.83106 10.7959 10.8969 9.8468 11.6131L9.8335 11.7084L11.9466 13.4732L12.093 13.489C13.4375 12.1503 14.2126 10.1806 14.2126 7.84438Z" fill="#4285F4"/>
<path d="M7.37918 15.3477C9.30103 15.3477 10.9145 14.6655 12.0929 13.4889L9.84676 11.613C9.24569 12.0649 8.43896 12.3804 7.37918 12.3804C5.49685 12.3804 3.89924 11.0418 3.32974 9.19153L3.24626 9.19917L1.04906 11.0324L1.02032 11.1185C2.19084 13.6253 4.59518 15.3477 7.37918 15.3477Z" fill="#34A853"/>
<path d="M3.32977 9.19157C3.1795 8.7141 3.09254 8.20247 3.09254 7.67385C3.09254 7.14517 3.1795 6.6336 3.32186 6.15612L3.31788 6.05443L1.09314 4.19177L1.02035 4.2291C0.537926 5.26935 0.261108 6.4375 0.261108 7.67385C0.261108 8.91019 0.537926 10.0783 1.02035 11.1185L3.32977 9.19157Z" fill="#FBBC05"/>
<path d="M7.37942 2.96721C8.71602 2.96721 9.61763 3.58964 10.1317 4.1098L12.1406 1.99521C10.9068 0.758864 9.30128 0 7.37942 0C4.59543 0 2.19109 1.72234 1.02057 4.22912L3.32208 6.15614C3.89949 4.30589 5.49709 2.96721 7.37942 2.96721Z" fill="#EB4335"/>
</svg>
