<svg width="13" height="14" viewBox="0 0 13 14" fill="none" xmlns="http://www.w3.org/2000/svg">
<circle cx="6.5" cy="6.5" r="5.75" fill="white" stroke="#9E9E9E" stroke-width="0.5"/>
<path d="M7.03906 11H5.95508V4.66016H7.03906V11ZM5.86719 2.97852C5.86719 2.80273 5.91992 2.6543 6.02539 2.5332C6.13477 2.41211 6.29492 2.35156 6.50586 2.35156C6.7168 2.35156 6.87695 2.41211 6.98633 2.5332C7.0957 2.6543 7.15039 2.80273 7.15039 2.97852C7.15039 3.1543 7.0957 3.30078 6.98633 3.41797C6.87695 3.53516 6.7168 3.59375 6.50586 3.59375C6.29492 3.59375 6.13477 3.53516 6.02539 3.41797C5.91992 3.30078 5.86719 3.1543 5.86719 2.97852Z" fill="#7FB6AC"/>
</svg>
