<svg width="134" height="102" viewBox="0 0 134 102" fill="none" xmlns="http://www.w3.org/2000/svg">
<path d="M51.1374 96.885C53.5476 96.885 55.9178 96.1502 57.7946 94.727C59.6747 93.3013 61.2796 90.9655 61.2796 87.9857C61.2796 85.006 59.6747 82.6701 57.7946 81.2444C55.9178 79.8213 53.5476 79.0864 51.1374 79.0864C48.7273 79.0864 46.357 79.8213 44.4802 81.2444C42.6001 82.6701 40.9952 85.006 40.9952 87.9857C40.9952 90.9655 42.6001 93.3013 44.4802 94.727C46.357 96.1502 48.7273 96.885 51.1374 96.885Z" stroke="#C7C7C7" stroke-width="10" stroke-linecap="round" stroke-linejoin="round"/>
<path d="M107.702 96.885C110.112 96.885 112.482 96.1502 114.359 94.727C116.239 93.3013 117.844 90.9655 117.844 87.9857C117.844 85.006 116.239 82.6701 114.359 81.2444C112.482 79.8213 110.112 79.0864 107.702 79.0864C105.291 79.0864 102.921 79.8213 101.044 81.2444C99.1642 82.6701 97.5593 85.006 97.5593 87.9857C97.5593 90.9655 99.1642 93.3013 101.044 94.727C102.921 96.1502 105.291 96.885 107.702 96.885Z" stroke="#C7C7C7" stroke-width="10" stroke-linecap="round" stroke-linejoin="round"/>
<mask id="path-3-outside-1" maskUnits="userSpaceOnUse" x="0" y="0" width="134" height="79" fill="black">
<rect fill="white" width="134" height="79"/>
<path d="M10 10C18.0326 10 30.5687 10 30.5687 10L44.3498 62.2115C44.82 64.0067 46.1079 65.6193 47.9881 66.767C49.8683 67.9147 52.2209 68.5244 54.6342 68.4893H104.616C107.029 68.5244 109.382 67.9147 111.262 66.767C113.142 65.6193 114.43 64.0067 114.901 62.2115L123.128 29.4964C123.128 29.4964 69.8494 29.4964 35.7109 29.4964"/>
</mask>
<path d="M10 0C4.47715 0 0 4.47715 0 10C0 15.5228 4.47715 20 10 20V0ZM30.5687 10L40.2376 7.44793C39.079 3.05831 35.1087 0 30.5687 0V10ZM44.3498 62.2115L54.0234 59.6776C54.0219 59.6716 54.0203 59.6655 54.0187 59.6594L44.3498 62.2115ZM54.6342 68.4893V58.4893C54.5857 58.4893 54.5373 58.4897 54.4889 58.4904L54.6342 68.4893ZM104.616 68.4893L104.761 58.4904C104.713 58.4897 104.665 58.4893 104.616 58.4893V68.4893ZM114.901 62.2115L124.574 64.7453C124.582 64.7137 124.591 64.6821 124.599 64.6504L114.901 62.2115ZM123.128 29.4964L132.826 31.9354C133.578 28.9466 132.909 25.7783 131.014 23.3478C129.12 20.9174 126.21 19.4964 123.128 19.4964V29.4964ZM35.7109 19.4964C30.1881 19.4964 25.7109 23.9736 25.7109 29.4964C25.7109 35.0193 30.1881 39.4964 35.7109 39.4964V19.4964ZM10 20C10.0157 20 10.0314 20 10.0471 20C10.0628 20 10.0786 20 10.0943 20C10.1101 20 10.1259 20 10.1417 20C10.1574 20 10.1733 20 10.1891 20C10.2049 20 10.2207 20 10.2366 20C10.2525 20 10.2683 20 10.2842 20C10.3001 20 10.316 20 10.3319 20C10.3479 20 10.3638 20 10.3798 20C10.3957 20 10.4117 20 10.4277 20C10.4437 20 10.4597 20 10.4757 20C10.4917 20 10.5077 20 10.5238 20C10.5398 20 10.5559 20 10.572 20C10.5881 20 10.6042 20 10.6203 20C10.6364 20 10.6525 20 10.6687 20C10.6848 20 10.701 20 10.7172 20C10.7333 20 10.7495 20 10.7657 20C10.7819 20 10.7982 20 10.8144 20C10.8306 20 10.8469 20 10.8631 20C10.8794 20 10.8957 20 10.912 20C10.9283 20 10.9446 20 10.9609 20C10.9772 20 10.9936 20 11.0099 20C11.0263 20 11.0427 20 11.059 20C11.0754 20 11.0918 20 11.1082 20C11.1246 20 11.1411 20 11.1575 20C11.174 20 11.1904 20 11.2069 20C11.2233 20 11.2398 20 11.2563 20C11.2728 20 11.2893 20 11.3059 20C11.3224 20 11.3389 20 11.3555 20C11.372 20 11.3886 20 11.4052 20C11.4217 20 11.4383 20 11.4549 20C11.4715 20 11.4882 20 11.5048 20C11.5214 20 11.5381 20 11.5547 20C11.5714 20 11.5881 20 11.6047 20C11.6214 20 11.6381 20 11.6548 20C11.6715 20 11.6883 20 11.705 20C11.7217 20 11.7385 20 11.7552 20C11.772 20 11.7888 20 11.8056 20C11.8224 20 11.8392 20 11.856 20C11.8728 20 11.8896 20 11.9064 20C11.9233 20 11.9401 20 11.957 20C11.9738 20 11.9907 20 12.0076 20C12.0245 20 12.0414 20 12.0583 20C12.0752 20 12.0921 20 12.109 20C12.126 20 12.1429 20 12.1599 20C12.1768 20 12.1938 20 12.2108 20C12.2277 20 12.2447 20 12.2617 20C12.2787 20 12.2957 20 12.3128 20C12.3298 20 12.3468 20 12.3639 20C12.3809 20 12.398 20 12.415 20C12.4321 20 12.4492 20 12.4663 20C12.4834 20 12.5005 20 12.5176 20C12.5347 20 12.5518 20 12.5689 20C12.5861 20 12.6032 20 12.6204 20C12.6375 20 12.6547 20 12.6719 20C12.689 20 12.7062 20 12.7234 20C12.7406 20 12.7578 20 12.775 20C12.7922 20 12.8095 20 12.8267 20C12.8439 20 12.8612 20 12.8784 20C12.8957 20 12.913 20 12.9302 20C12.9475 20 12.9648 20 12.9821 20C12.9994 20 13.0167 20 13.034 20C13.0513 20 13.0686 20 13.0859 20C13.1033 20 13.1206 20 13.138 20C13.1553 20 13.1727 20 13.19 20C13.2074 20 13.2248 20 13.2422 20C13.2596 20 13.277 20 13.2944 20C13.3118 20 13.3292 20 13.3466 20C13.364 20 13.3814 20 13.3989 20C13.4163 20 13.4338 20 13.4512 20C13.4687 20 13.4861 20 13.5036 20C13.5211 20 13.5386 20 13.5561 20C13.5735 20 13.591 20 13.6085 20C13.626 20 13.6436 20 13.6611 20C13.6786 20 13.6961 20 13.7137 20C13.7312 20 13.7487 20 13.7663 20C13.7838 20 13.8014 20 13.819 20C13.8365 20 13.8541 20 13.8717 20C13.8893 20 13.9069 20 13.9245 20C13.9421 20 13.9597 20 13.9773 20C13.9949 20 14.0125 20 14.0301 20C14.0478 20 14.0654 20 14.083 20C14.1007 20 14.1183 20 14.136 20C14.1536 20 14.1713 20 14.1889 20C14.2066 20 14.2243 20 14.242 20C14.2596 20 14.2773 20 14.295 20C14.3127 20 14.3304 20 14.3481 20C14.3658 20 14.3835 20 14.4012 20C14.419 20 14.4367 20 14.4544 20C14.4721 20 14.4899 20 14.5076 20C14.5254 20 14.5431 20 14.5609 20C14.5786 20 14.5964 20 14.6141 20C14.6319 20 14.6497 20 14.6674 20C14.6852 20 14.703 20 14.7208 20C14.7386 20 14.7564 20 14.7742 20C14.7919 20 14.8098 20 14.8276 20C14.8454 20 14.8632 20 14.881 20C14.8988 20 14.9166 20 14.9345 20C14.9523 20 14.9701 20 14.988 20C15.0058 20 15.0236 20 15.0415 20C15.0593 20 15.0772 20 15.095 20C15.1129 20 15.1307 20 15.1486 20C15.1665 20 15.1843 20 15.2022 20C15.2201 20 15.238 20 15.2558 20C15.2737 20 15.2916 20 15.3095 20C15.3274 20 15.3453 20 15.3632 20C15.3811 20 15.399 20 15.4169 20C15.4348 20 15.4527 20 15.4706 20C15.4885 20 15.5064 20 15.5243 20C15.5423 20 15.5602 20 15.5781 20C15.596 20 15.614 20 15.6319 20C15.6498 20 15.6678 20 15.6857 20C15.7036 20 15.7216 20 15.7395 20C15.7575 20 15.7754 20 15.7934 20C15.8113 20 15.8293 20 15.8472 20C15.8652 20 15.8831 20 15.9011 20C15.9191 20 15.937 20 15.955 20C15.973 20 15.9909 20 16.0089 20C16.0269 20 16.0448 20 16.0628 20C16.0808 20 16.0988 20 16.1168 20C16.1347 20 16.1527 20 16.1707 20C16.1887 20 16.2067 20 16.2247 20C16.2426 20 16.2606 20 16.2786 20C16.2966 20 16.3146 20 16.3326 20C16.3506 20 16.3686 20 16.3866 20C16.4046 20 16.4226 20 16.4406 20C16.4586 20 16.4766 20 16.4946 20C16.5126 20 16.5306 20 16.5486 20C16.5666 20 16.5846 20 16.6026 20C16.6206 20 16.6386 20 16.6566 20C16.6746 20 16.6927 20 16.7107 20C16.7287 20 16.7467 20 16.7647 20C16.7827 20 16.8007 20 16.8187 20C16.8367 20 16.8548 20 16.8728 20C16.8908 20 16.9088 20 16.9268 20C16.9448 20 16.9628 20 16.9808 20C16.9989 20 17.0169 20 17.0349 20C17.0529 20 17.0709 20 17.0889 20C17.1069 20 17.125 20 17.143 20C17.161 20 17.179 20 17.197 20C17.215 20 17.233 20 17.251 20C17.269 20 17.2871 20 17.3051 20C17.3231 20 17.3411 20 17.3591 20C17.3771 20 17.3951 20 17.4131 20C17.4311 20 17.4491 20 17.4671 20C17.4851 20 17.5031 20 17.5211 20C17.5391 20 17.5571 20 17.5751 20C17.5931 20 17.6111 20 17.6291 20C17.6471 20 17.6651 20 17.6831 20C17.7011 20 17.7191 20 17.7371 20C17.7551 20 17.7731 20 17.791 20C17.809 20 17.827 20 17.845 20C17.863 20 17.881 20 17.8989 20C17.9169 20 17.9349 20 17.9529 20C17.9708 20 17.9888 20 18.0068 20C18.0248 20 18.0427 20 18.0607 20C18.0786 20 18.0966 20 18.1146 20C18.1325 20 18.1505 20 18.1684 20C18.1864 20 18.2043 20 18.2223 20C18.2402 20 18.2582 20 18.2761 20C18.2941 20 18.312 20 18.3299 20C18.3479 20 18.3658 20 18.3837 20C18.4017 20 18.4196 20 18.4375 20C18.4554 20 18.4734 20 18.4913 20C18.5092 20 18.5271 20 18.545 20C18.5629 20 18.5808 20 18.5987 20C18.6166 20 18.6345 20 18.6524 20C18.6703 20 18.6882 20 18.7061 20C18.724 20 18.7419 20 18.7597 20C18.7776 20 18.7955 20 18.8134 20C18.8312 20 18.8491 20 18.867 20C18.8848 20 18.9027 20 18.9205 20C18.9384 20 18.9562 20 18.9741 20C18.9919 20 19.0098 20 19.0276 20C19.0454 20 19.0632 20 19.0811 20C19.0989 20 19.1167 20 19.1345 20C19.1523 20 19.1701 20 19.188 20C19.2058 20 19.2236 20 19.2413 20C19.2591 20 19.2769 20 19.2947 20C19.3125 20 19.3303 20 19.348 20C19.3658 20 19.3836 20 19.4013 20C19.4191 20 19.4368 20 19.4546 20C19.4723 20 19.4901 20 19.5078 20C19.5256 20 19.5433 20 19.561 20C19.5787 20 19.5965 20 19.6142 20C19.6319 20 19.6496 20 19.6673 20C19.685 20 19.7027 20 19.7204 20C19.7381 20 19.7557 20 19.7734 20C19.7911 20 19.8088 20 19.8264 20C19.8441 20 19.8617 20 19.8794 20C19.897 20 19.9147 20 19.9323 20C19.9499 20 19.9676 20 19.9852 20C20.0028 20 20.0204 20 20.038 20C20.0556 20 20.0732 20 20.0908 20C20.1084 20 20.126 20 20.1436 20C20.1611 20 20.1787 20 20.1963 20C20.2138 20 20.2314 20 20.2489 20C20.2665 20 20.284 20 20.3016 20C20.3191 20 20.3366 20 20.3541 20C20.3716 20 20.3891 20 20.4066 20C20.4241 20 20.4416 20 20.4591 20C20.4766 20 20.4941 20 20.5115 20C20.529 20 20.5465 20 20.5639 20C20.5814 20 20.5988 20 20.6162 20C20.6337 20 20.6511 20 20.6685 20C20.6859 20 20.7033 20 20.7207 20C20.7381 20 20.7555 20 20.7729 20C20.7903 20 20.8076 20 20.825 20C20.8424 20 20.8597 20 20.877 20C20.8944 20 20.9117 20 20.929 20C20.9464 20 20.9637 20 20.981 20C20.9983 20 21.0156 20 21.0329 20C21.0502 20 21.0674 20 21.0847 20C21.102 20 21.1192 20 21.1365 20C21.1537 20 21.171 20 21.1882 20C21.2054 20 21.2226 20 21.2398 20C21.2571 20 21.2742 20 21.2914 20C21.3086 20 21.3258 20 21.343 20C21.3601 20 21.3773 20 21.3944 20C21.4116 20 21.4287 20 21.4458 20C21.463 20 21.4801 20 21.4972 20C21.5143 20 21.5314 20 21.5485 20C21.5655 20 21.5826 20 21.5997 20C21.6167 20 21.6338 20 21.6508 20C21.6679 20 21.6849 20 21.7019 20C21.7189 20 21.7359 20 21.7529 20C21.7699 20 21.7869 20 21.8038 20C21.8208 20 21.8378 20 21.8547 20C21.8717 20 21.8886 20 21.9055 20C21.9224 20 21.9394 20 21.9563 20C21.9732 20 21.99 20 22.0069 20C22.0238 20 22.0407 20 22.0575 20C22.0744 20 22.0912 20 22.108 20C22.1249 20 22.1417 20 22.1585 20C22.1753 20 22.1921 20 22.2088 20C22.2256 20 22.2424 20 22.2591 20C22.2759 20 22.2926 20 22.3094 20C22.3261 20 22.3428 20 22.3595 20C22.3762 20 22.3929 20 22.4096 20C22.4262 20 22.4429 20 22.4595 20C22.4762 20 22.4928 20 22.5094 20C22.5261 20 22.5427 20 22.5593 20C22.5759 20 22.5925 20 22.609 20C22.6256 20 22.6421 20 22.6587 20C22.6752 20 22.6918 20 22.7083 20C22.7248 20 22.7413 20 22.7578 20C22.7743 20 22.7907 20 22.8072 20C22.8236 20 22.8401 20 22.8565 20C22.8729 20 22.8894 20 22.9058 20C22.9222 20 22.9386 20 22.9549 20C22.9713 20 22.9877 20 23.004 20C23.0203 20 23.0367 20 23.053 20C23.0693 20 23.0856 20 23.1019 20C23.1182 20 23.1344 20 23.1507 20C23.167 20 23.1832 20 23.1994 20C23.2156 20 23.2319 20 23.2481 20C23.2642 20 23.2804 20 23.2966 20C23.3128 20 23.3289 20 23.345 20C23.3612 20 23.3773 20 23.3934 20C23.4095 20 23.4256 20 23.4417 20C23.4577 20 23.4738 20 23.4898 20C23.5059 20 23.5219 20 23.5379 20C23.5539 20 23.5699 20 23.5859 20C23.6018 20 23.6178 20 23.6337 20C23.6497 20 23.6656 20 23.6815 20C23.6974 20 23.7133 20 23.7292 20C23.7451 20 23.761 20 23.7768 20C23.7926 20 23.8085 20 23.8243 20C23.8401 20 23.8559 20 23.8717 20C23.8875 20 23.9032 20 23.919 20C23.9347 20 23.9504 20 23.9661 20C23.9819 20 23.9975 20 24.0132 20C24.0289 20 24.0446 20 24.0602 20C24.0758 20 24.0915 20 24.1071 20C24.1227 20 24.1383 20 24.1538 20C24.1694 20 24.185 20 24.2005 20C24.216 20 24.2316 20 24.2471 20C24.2626 20 24.278 20 24.2935 20C24.309 20 24.3244 20 24.3398 20C24.3553 20 24.3707 20 24.3861 20C24.4015 20 24.4168 20 24.4322 20C24.4476 20 24.4629 20 24.4782 20C24.4935 20 24.5088 20 24.5241 20C24.5394 20 24.5547 20 24.5699 20C24.5852 20 24.6004 20 24.6156 20C24.6308 20 24.646 20 24.6611 20C24.6763 20 24.6915 20 24.7066 20C24.7217 20 24.7368 20 24.7519 20C24.767 20 24.7821 20 24.7972 20C24.8122 20 24.8272 20 24.8423 20C24.8573 20 24.8723 20 24.8872 20C24.9022 20 24.9172 20 24.9321 20C24.9471 20 24.962 20 24.9769 20C24.9918 20 25.0066 20 25.0215 20C25.0364 20 25.0512 20 25.066 20C25.0808 20 25.0956 20 25.1104 20C25.1252 20 25.1399 20 25.1547 20C25.1694 20 25.1841 20 25.1988 20C25.2135 20 25.2282 20 25.2428 20C25.2575 20 25.2721 20 25.2867 20C25.3013 20 25.3159 20 25.3305 20C25.3451 20 25.3596 20 25.3742 20C25.3887 20 25.4032 20 25.4177 20C25.4322 20 25.4466 20 25.4611 20C25.4755 20 25.4899 20 25.5043 20C25.5187 20 25.5331 20 25.5475 20C25.5618 20 25.5762 20 25.5905 20C25.6048 20 25.6191 20 25.6334 20C25.6476 20 25.6619 20 25.6761 20C25.6903 20 25.7045 20 25.7187 20C25.7329 20 25.7471 20 25.7612 20C25.7754 20 25.7895 20 25.8036 20C25.8177 20 25.8317 20 25.8458 20C25.8598 20 25.8739 20 25.8879 20C25.9019 20 25.9159 20 25.9298 20C25.9438 20 25.9577 20 25.9716 20C25.9855 20 25.9994 20 26.0133 20C26.0272 20 26.041 20 26.0548 20C26.0687 20 26.0825 20 26.0962 20C26.11 20 26.1238 20 26.1375 20C26.1512 20 26.1649 20 26.1786 20C26.1923 20 26.206 20 26.2196 20C26.2332 20 26.2469 20 26.2604 20C26.274 20 26.2876 20 26.3011 20C26.3147 20 26.3282 20 26.3417 20C26.3552 20 26.3687 20 26.3821 20C26.3955 20 26.409 20 26.4224 20C26.4358 20 26.4491 20 26.4625 20C26.4758 20 26.4892 20 26.5025 20C26.5158 20 26.529 20 26.5423 20C26.5555 20 26.5688 20 26.582 20C26.5952 20 26.6083 20 26.6215 20C26.6347 20 26.6478 20 26.6609 20C26.674 20 26.6871 20 26.7001 20C26.7132 20 26.7262 20 26.7392 20C26.7522 20 26.7652 20 26.7781 20C26.7911 20 26.804 20 26.8169 20C26.8298 20 26.8427 20 26.8555 20C26.8684 20 26.8812 20 26.894 20C26.9068 20 26.9196 20 26.9323 20C26.9451 20 26.9578 20 26.9705 20C26.9832 20 26.9958 20 27.0085 20C27.0211 20 27.0337 20 27.0463 20C27.0589 20 27.0715 20 27.084 20C27.0966 20 27.1091 20 27.1216 20C27.134 20 27.1465 20 27.1589 20C27.1714 20 27.1838 20 27.1962 20C27.2085 20 27.2209 20 27.2332 20C27.2455 20 27.2578 20 27.2701 20C27.2824 20 27.2946 20 27.3068 20C27.319 20 27.3312 20 27.3434 20C27.3556 20 27.3677 20 27.3798 20C27.3919 20 27.404 20 27.416 20C27.4281 20 27.4401 20 27.4521 20C27.4641 20 27.4761 20 27.488 20C27.5 20 27.5119 20 27.5238 20C27.5357 20 27.5475 20 27.5594 20C27.5712 20 27.583 20 27.5948 20C27.6065 20 27.6183 20 27.63 20C27.6417 20 27.6534 20 27.6651 20C27.6767 20 27.6884 20 27.7 20C27.7116 20 27.7232 20 27.7347 20C27.7462 20 27.7578 20 27.7693 20C27.7807 20 27.7922 20 27.8036 20C27.8151 20 27.8265 20 27.8378 20C27.8492 20 27.8606 20 27.8719 20C27.8832 20 27.8945 20 27.9057 20C27.917 20 27.9282 20 27.9394 20C27.9506 20 27.9618 20 27.9729 20C27.9841 20 27.9952 20 28.0063 20C28.0174 20 28.0284 20 28.0394 20C28.0504 20 28.0614 20 28.0724 20C28.0834 20 28.0943 20 28.1052 20C28.1161 20 28.127 20 28.1378 20C28.1486 20 28.1595 20 28.1702 20C28.181 20 28.1918 20 28.2025 20C28.2132 20 28.2239 20 28.2346 20C28.2452 20 28.2559 20 28.2664 20C28.277 20 28.2876 20 28.2982 20C28.3087 20 28.3192 20 28.3297 20C28.3401 20 28.3506 20 28.361 20C28.3714 20 28.3818 20 28.3921 20C28.4025 20 28.4128 20 28.4231 20C28.4334 20 28.4436 20 28.4539 20C28.4641 20 28.4743 20 28.4845 20C28.4946 20 28.5047 20 28.5148 20C28.5249 20 28.535 20 28.545 20C28.5551 20 28.5651 20 28.5751 20C28.585 20 28.595 20 28.6049 20C28.6148 20 28.6247 20 28.6345 20C28.6443 20 28.6542 20 28.6639 20C28.6737 20 28.6835 20 28.6932 20C28.7029 20 28.7126 20 28.7222 20C28.7319 20 28.7415 20 28.7511 20C28.7607 20 28.7702 20 28.7797 20C28.7892 20 28.7987 20 28.8082 20C28.8176 20 28.8271 20 28.8364 20C28.8458 20 28.8552 20 28.8645 20C28.8738 20 28.8831 20 28.8924 20C28.9016 20 28.9108 20 28.92 20C28.9292 20 28.9384 20 28.9475 20C28.9566 20 28.9657 20 28.9747 20C28.9838 20 28.9928 20 29.0018 20C29.0108 20 29.0197 20 29.0286 20C29.0376 20 29.0464 20 29.0553 20C29.0641 20 29.073 20 29.0817 20C29.0905 20 29.0993 20 29.108 20C29.1167 20 29.1254 20 29.134 20C29.1426 20 29.1513 20 29.1598 20C29.1684 20 29.1769 20 29.1854 20C29.194 20 29.2024 20 29.2109 20C29.2193 20 29.2277 20 29.2361 20C29.2444 20 29.2528 20 29.261 20C29.2693 20 29.2776 20 29.2858 20C29.294 20 29.3022 20 29.3104 20C29.3185 20 29.3267 20 29.3347 20C29.3428 20 29.3509 20 29.3589 20C29.3669 20 29.3749 20 29.3828 20C29.3908 20 29.3987 20 29.4065 20C29.4144 20 29.4222 20 29.43 20C29.4378 20 29.4456 20 29.4533 20C29.461 20 29.4687 20 29.4764 20C29.484 20 29.4916 20 29.4992 20C29.5068 20 29.5143 20 29.5219 20C29.5294 20 29.5368 20 29.5443 20C29.5517 20 29.5591 20 29.5665 20C29.5738 20 29.5811 20 29.5884 20C29.5957 20 29.603 20 29.6102 20C29.6174 20 29.6246 20 29.6317 20C29.6388 20 29.6459 20 29.653 20C29.6601 20 29.6671 20 29.6741 20C29.6811 20 29.688 20 29.6949 20C29.7018 20 29.7087 20 29.7156 20C29.7224 20 29.7292 20 29.736 20C29.7427 20 29.7495 20 29.7561 20C29.7628 20 29.7695 20 29.7761 20C29.7827 20 29.7893 20 29.7958 20C29.8023 20 29.8088 20 29.8153 20C29.8218 20 29.8282 20 29.8346 20C29.841 20 29.8473 20 29.8536 20C29.8599 20 29.8662 20 29.8724 20C29.8786 20 29.8848 20 29.891 20C29.8971 20 29.9032 20 29.9093 20C29.9154 20 29.9214 20 29.9274 20C29.9334 20 29.9394 20 29.9453 20C29.9512 20 29.9571 20 29.9629 20C29.9687 20 29.9745 20 29.9803 20C29.9861 20 29.9918 20 29.9975 20C30.0031 20 30.0088 20 30.0144 20C30.02 20 30.0255 20 30.0311 20C30.0366 20 30.0421 20 30.0475 20C30.053 20 30.0584 20 30.0637 20C30.0691 20 30.0744 20 30.0797 20C30.085 20 30.0902 20 30.0954 20C30.1006 20 30.1058 20 30.1109 20C30.116 20 30.1211 20 30.1261 20C30.1312 20 30.1362 20 30.1411 20C30.1461 20 30.151 20 30.1559 20C30.1608 20 30.1656 20 30.1704 20C30.1752 20 30.1799 20 30.1846 20C30.1894 20 30.194 20 30.1987 20C30.2033 20 30.2079 20 30.2124 20C30.217 20 30.2215 20 30.2259 20C30.2304 20 30.2348 20 30.2392 20C30.2436 20 30.2479 20 30.2522 20C30.2565 20 30.2608 20 30.265 20C30.2692 20 30.2734 20 30.2775 20C30.2817 20 30.2857 20 30.2898 20C30.2938 20 30.2978 20 30.3018 20C30.3058 20 30.3097 20 30.3136 20C30.3174 20 30.3213 20 30.3251 20C30.3289 20 30.3326 20 30.3363 20C30.34 20 30.3437 20 30.3473 20C30.3509 20 30.3545 20 30.3581 20C30.3616 20 30.3651 20 30.3685 20C30.372 20 30.3754 20 30.3788 20C30.3821 20 30.3855 20 30.3887 20C30.392 20 30.3952 20 30.3984 20C30.4016 20 30.4048 20 30.4079 20C30.411 20 30.414 20 30.4171 20C30.4201 20 30.4231 20 30.426 20C30.4289 20 30.4318 20 30.4346 20C30.4375 20 30.4403 20 30.443 20C30.4458 20 30.4485 20 30.4512 20C30.4538 20 30.4565 20 30.459 20C30.4616 20 30.4642 20 30.4667 20C30.4691 20 30.4716 20 30.474 20C30.4764 20 30.4787 20 30.4811 20C30.4834 20 30.4856 20 30.4879 20C30.4901 20 30.4923 20 30.4944 20C30.4965 20 30.4986 20 30.5007 20C30.5027 20 30.5047 20 30.5066 20C30.5086 20 30.5105 20 30.5124 20C30.5142 20 30.516 20 30.5178 20C30.5196 20 30.5213 20 30.523 20C30.5247 20 30.5263 20 30.5279 20C30.5295 20 30.531 20 30.5325 20C30.534 20 30.5355 20 30.5369 20C30.5383 20 30.5397 20 30.541 20C30.5423 20 30.5435 20 30.5448 20C30.546 20 30.5472 20 30.5483 20C30.5494 20 30.5505 20 30.5515 20C30.5526 20 30.5536 20 30.5545 20C30.5555 20 30.5564 20 30.5572 20C30.5581 20 30.5589 20 30.5596 20C30.5604 20 30.5611 20 30.5618 20C30.5624 20 30.563 20 30.5636 20C30.5642 20 30.5647 20 30.5652 20C30.5656 20 30.5661 20 30.5665 20C30.5668 20 30.5672 20 30.5674 20C30.5677 20 30.568 20 30.5682 20C30.5684 20 30.5685 20 30.5686 20C30.5687 20 30.5687 20 30.5687 10C30.5687 0 30.5687 0 30.5686 0C30.5685 0 30.5684 0 30.5682 0C30.568 0 30.5677 0 30.5674 0C30.5672 0 30.5668 0 30.5665 0C30.5661 0 30.5656 0 30.5652 0C30.5647 0 30.5642 0 30.5636 0C30.563 0 30.5624 0 30.5618 0C30.5611 0 30.5604 0 30.5596 0C30.5589 0 30.5581 0 30.5572 0C30.5564 0 30.5555 0 30.5545 0C30.5536 0 30.5526 0 30.5515 0C30.5505 0 30.5494 0 30.5483 0C30.5472 0 30.546 0 30.5448 0C30.5435 0 30.5423 0 30.541 0C30.5397 0 30.5383 0 30.5369 0C30.5355 0 30.534 0 30.5325 0C30.531 0 30.5295 0 30.5279 0C30.5263 0 30.5247 0 30.523 0C30.5213 0 30.5196 0 30.5178 0C30.516 0 30.5142 0 30.5124 0C30.5105 0 30.5086 0 30.5066 0C30.5047 0 30.5027 0 30.5007 0C30.4986 0 30.4965 0 30.4944 0C30.4923 0 30.4901 0 30.4879 0C30.4856 0 30.4834 0 30.4811 0C30.4787 0 30.4764 0 30.474 0C30.4716 0 30.4691 0 30.4667 0C30.4642 0 30.4616 0 30.459 0C30.4565 0 30.4538 0 30.4512 0C30.4485 0 30.4458 0 30.443 0C30.4403 0 30.4375 0 30.4346 0C30.4318 0 30.4289 0 30.426 0C30.4231 0 30.4201 0 30.4171 0C30.414 0 30.411 0 30.4079 0C30.4048 0 30.4016 0 30.3984 0C30.3952 0 30.392 0 30.3887 0C30.3855 0 30.3821 0 30.3788 0C30.3754 0 30.372 0 30.3685 0C30.3651 0 30.3616 0 30.3581 0C30.3545 0 30.3509 0 30.3473 0C30.3437 0 30.34 0 30.3363 0C30.3326 0 30.3289 0 30.3251 0C30.3213 0 30.3174 0 30.3136 0C30.3097 0 30.3058 0 30.3018 0C30.2978 0 30.2938 0 30.2898 0C30.2857 0 30.2817 0 30.2775 0C30.2734 0 30.2692 0 30.265 0C30.2608 0 30.2565 0 30.2522 0C30.2479 0 30.2436 0 30.2392 0C30.2348 0 30.2304 0 30.2259 0C30.2215 0 30.217 0 30.2124 0C30.2079 0 30.2033 0 30.1987 0C30.194 0 30.1894 0 30.1846 0C30.1799 0 30.1752 0 30.1704 0C30.1656 0 30.1608 0 30.1559 0C30.151 0 30.1461 0 30.1411 0C30.1362 0 30.1312 0 30.1261 0C30.1211 0 30.116 0 30.1109 0C30.1058 0 30.1006 0 30.0954 0C30.0902 0 30.085 0 30.0797 0C30.0744 0 30.0691 0 30.0637 0C30.0584 0 30.053 0 30.0475 0C30.0421 0 30.0366 0 30.0311 0C30.0255 0 30.02 0 30.0144 0C30.0088 0 30.0031 0 29.9975 0C29.9918 0 29.9861 0 29.9803 0C29.9745 0 29.9687 0 29.9629 0C29.9571 0 29.9512 0 29.9453 0C29.9394 0 29.9334 0 29.9274 0C29.9214 0 29.9154 0 29.9093 0C29.9032 0 29.8971 0 29.891 0C29.8848 0 29.8786 0 29.8724 0C29.8662 0 29.8599 0 29.8536 0C29.8473 0 29.841 0 29.8346 0C29.8282 0 29.8218 0 29.8153 0C29.8088 0 29.8023 0 29.7958 0C29.7893 0 29.7827 0 29.7761 0C29.7695 0 29.7628 0 29.7561 0C29.7495 0 29.7427 0 29.736 0C29.7292 0 29.7224 0 29.7156 0C29.7087 0 29.7018 0 29.6949 0C29.688 0 29.6811 0 29.6741 0C29.6671 0 29.6601 0 29.653 0C29.6459 0 29.6388 0 29.6317 0C29.6246 0 29.6174 0 29.6102 0C29.603 0 29.5957 0 29.5884 0C29.5811 0 29.5738 0 29.5665 0C29.5591 0 29.5517 0 29.5443 0C29.5368 0 29.5294 0 29.5219 0C29.5143 0 29.5068 0 29.4992 0C29.4916 0 29.484 0 29.4764 0C29.4687 0 29.461 0 29.4533 0C29.4456 0 29.4378 0 29.43 0C29.4222 0 29.4144 0 29.4065 0C29.3987 0 29.3908 0 29.3828 0C29.3749 0 29.3669 0 29.3589 0C29.3509 0 29.3428 0 29.3347 0C29.3267 0 29.3185 0 29.3104 0C29.3022 0 29.294 0 29.2858 0C29.2776 0 29.2693 0 29.261 0C29.2528 0 29.2444 0 29.2361 0C29.2277 0 29.2193 0 29.2109 0C29.2024 0 29.194 0 29.1854 0C29.1769 0 29.1684 0 29.1598 0C29.1513 0 29.1426 0 29.134 0C29.1254 0 29.1167 0 29.108 0C29.0993 0 29.0905 0 29.0817 0C29.073 0 29.0641 0 29.0553 0C29.0464 0 29.0376 0 29.0286 0C29.0197 0 29.0108 0 29.0018 0C28.9928 0 28.9838 0 28.9747 0C28.9657 0 28.9566 0 28.9475 0C28.9384 0 28.9292 0 28.92 0C28.9108 0 28.9016 0 28.8924 0C28.8831 0 28.8738 0 28.8645 0C28.8552 0 28.8458 0 28.8364 0C28.8271 0 28.8176 0 28.8082 0C28.7987 0 28.7892 0 28.7797 0C28.7702 0 28.7607 0 28.7511 0C28.7415 0 28.7319 0 28.7222 0C28.7126 0 28.7029 0 28.6932 0C28.6835 0 28.6737 0 28.6639 0C28.6542 0 28.6443 0 28.6345 0C28.6247 0 28.6148 0 28.6049 0C28.595 0 28.585 0 28.5751 0C28.5651 0 28.5551 0 28.545 0C28.535 0 28.5249 0 28.5148 0C28.5047 0 28.4946 0 28.4845 0C28.4743 0 28.4641 0 28.4539 0C28.4436 0 28.4334 0 28.4231 0C28.4128 0 28.4025 0 28.3921 0C28.3818 0 28.3714 0 28.361 0C28.3506 0 28.3401 0 28.3297 0C28.3192 0 28.3087 0 28.2982 0C28.2876 0 28.277 0 28.2664 0C28.2559 0 28.2452 0 28.2346 0C28.2239 0 28.2132 0 28.2025 0C28.1918 0 28.181 0 28.1702 0C28.1595 0 28.1486 0 28.1378 0C28.127 0 28.1161 0 28.1052 0C28.0943 0 28.0834 0 28.0724 0C28.0614 0 28.0504 0 28.0394 0C28.0284 0 28.0174 0 28.0063 0C27.9952 0 27.9841 0 27.9729 0C27.9618 0 27.9506 0 27.9394 0C27.9282 0 27.917 0 27.9057 0C27.8945 0 27.8832 0 27.8719 0C27.8606 0 27.8492 0 27.8378 0C27.8265 0 27.8151 0 27.8036 0C27.7922 0 27.7807 0 27.7693 0C27.7578 0 27.7462 0 27.7347 0C27.7232 0 27.7116 0 27.7 0C27.6884 0 27.6767 0 27.6651 0C27.6534 0 27.6417 0 27.63 0C27.6183 0 27.6065 0 27.5948 0C27.583 0 27.5712 0 27.5594 0C27.5475 0 27.5357 0 27.5238 0C27.5119 0 27.5 0 27.488 0C27.4761 0 27.4641 0 27.4521 0C27.4401 0 27.4281 0 27.416 0C27.404 0 27.3919 0 27.3798 0C27.3677 0 27.3556 0 27.3434 0C27.3312 0 27.319 0 27.3068 0C27.2946 0 27.2824 0 27.2701 0C27.2578 0 27.2455 0 27.2332 0C27.2209 0 27.2085 0 27.1962 0C27.1838 0 27.1714 0 27.1589 0C27.1465 0 27.134 0 27.1216 0C27.1091 0 27.0966 0 27.084 0C27.0715 0 27.0589 0 27.0463 0C27.0337 0 27.0211 0 27.0085 0C26.9958 0 26.9832 0 26.9705 0C26.9578 0 26.9451 0 26.9323 0C26.9196 0 26.9068 0 26.894 0C26.8812 0 26.8684 0 26.8555 0C26.8427 0 26.8298 0 26.8169 0C26.804 0 26.7911 0 26.7781 0C26.7652 0 26.7522 0 26.7392 0C26.7262 0 26.7132 0 26.7001 0C26.6871 0 26.674 0 26.6609 0C26.6478 0 26.6347 0 26.6215 0C26.6083 0 26.5952 0 26.582 0C26.5688 0 26.5555 0 26.5423 0C26.529 0 26.5158 0 26.5025 0C26.4892 0 26.4758 0 26.4625 0C26.4491 0 26.4358 0 26.4224 0C26.409 0 26.3955 0 26.3821 0C26.3687 0 26.3552 0 26.3417 0C26.3282 0 26.3147 0 26.3011 0C26.2876 0 26.274 0 26.2604 0C26.2469 0 26.2332 0 26.2196 0C26.206 0 26.1923 0 26.1786 0C26.1649 0 26.1512 0 26.1375 0C26.1238 0 26.11 0 26.0962 0C26.0825 0 26.0687 0 26.0548 0C26.041 0 26.0272 0 26.0133 0C25.9994 0 25.9855 0 25.9716 0C25.9577 0 25.9438 0 25.9298 0C25.9159 0 25.9019 0 25.8879 0C25.8739 0 25.8598 0 25.8458 0C25.8317 0 25.8177 0 25.8036 0C25.7895 0 25.7754 0 25.7612 0C25.7471 0 25.7329 0 25.7187 0C25.7045 0 25.6903 0 25.6761 0C25.6619 0 25.6476 0 25.6334 0C25.6191 0 25.6048 0 25.5905 0C25.5762 0 25.5618 0 25.5475 0C25.5331 0 25.5187 0 25.5043 0C25.4899 0 25.4755 0 25.4611 0C25.4466 0 25.4322 0 25.4177 0C25.4032 0 25.3887 0 25.3742 0C25.3596 0 25.3451 0 25.3305 0C25.3159 0 25.3013 0 25.2867 0C25.2721 0 25.2575 0 25.2428 0C25.2282 0 25.2135 0 25.1988 0C25.1841 0 25.1694 0 25.1547 0C25.1399 0 25.1252 0 25.1104 0C25.0956 0 25.0808 0 25.066 0C25.0512 0 25.0364 0 25.0215 0C25.0066 0 24.9918 0 24.9769 0C24.962 0 24.9471 0 24.9321 0C24.9172 0 24.9022 0 24.8872 0C24.8723 0 24.8573 0 24.8423 0C24.8272 0 24.8122 0 24.7972 0C24.7821 0 24.767 0 24.7519 0C24.7368 0 24.7217 0 24.7066 0C24.6915 0 24.6763 0 24.6611 0C24.646 0 24.6308 0 24.6156 0C24.6004 0 24.5852 0 24.5699 0C24.5547 0 24.5394 0 24.5241 0C24.5088 0 24.4935 0 24.4782 0C24.4629 0 24.4476 0 24.4322 0C24.4168 0 24.4015 0 24.3861 0C24.3707 0 24.3553 0 24.3398 0C24.3244 0 24.309 0 24.2935 0C24.278 0 24.2626 0 24.2471 0C24.2316 0 24.216 0 24.2005 0C24.185 0 24.1694 0 24.1538 0C24.1383 0 24.1227 0 24.1071 0C24.0915 0 24.0758 0 24.0602 0C24.0446 0 24.0289 0 24.0132 0C23.9975 0 23.9819 0 23.9661 0C23.9504 0 23.9347 0 23.919 0C23.9032 0 23.8875 0 23.8717 0C23.8559 0 23.8401 0 23.8243 0C23.8085 0 23.7926 0 23.7768 0C23.761 0 23.7451 0 23.7292 0C23.7133 0 23.6974 0 23.6815 0C23.6656 0 23.6497 0 23.6337 0C23.6178 0 23.6018 0 23.5859 0C23.5699 0 23.5539 0 23.5379 0C23.5219 0 23.5059 0 23.4898 0C23.4738 0 23.4577 0 23.4417 0C23.4256 0 23.4095 0 23.3934 0C23.3773 0 23.3612 0 23.345 0C23.3289 0 23.3128 0 23.2966 0C23.2804 0 23.2642 0 23.2481 0C23.2319 0 23.2156 0 23.1994 0C23.1832 0 23.167 0 23.1507 0C23.1344 0 23.1182 0 23.1019 0C23.0856 0 23.0693 0 23.053 0C23.0367 0 23.0203 0 23.004 0C22.9877 0 22.9713 0 22.9549 0C22.9386 0 22.9222 0 22.9058 0C22.8894 0 22.8729 0 22.8565 0C22.8401 0 22.8236 0 22.8072 0C22.7907 0 22.7743 0 22.7578 0C22.7413 0 22.7248 0 22.7083 0C22.6918 0 22.6752 0 22.6587 0C22.6421 0 22.6256 0 22.609 0C22.5925 0 22.5759 0 22.5593 0C22.5427 0 22.5261 0 22.5094 0C22.4928 0 22.4762 0 22.4595 0C22.4429 0 22.4262 0 22.4096 0C22.3929 0 22.3762 0 22.3595 0C22.3428 0 22.3261 0 22.3094 0C22.2926 0 22.2759 0 22.2591 0C22.2424 0 22.2256 0 22.2088 0C22.1921 0 22.1753 0 22.1585 0C22.1417 0 22.1249 0 22.108 0C22.0912 0 22.0744 0 22.0575 0C22.0407 0 22.0238 0 22.0069 0C21.99 0 21.9732 0 21.9563 0C21.9394 0 21.9224 0 21.9055 0C21.8886 0 21.8717 0 21.8547 0C21.8378 0 21.8208 0 21.8038 0C21.7869 0 21.7699 0 21.7529 0C21.7359 0 21.7189 0 21.7019 0C21.6849 0 21.6679 0 21.6508 0C21.6338 0 21.6167 0 21.5997 0C21.5826 0 21.5655 0 21.5485 0C21.5314 0 21.5143 0 21.4972 0C21.4801 0 21.463 0 21.4458 0C21.4287 0 21.4116 0 21.3944 0C21.3773 0 21.3601 0 21.343 0C21.3258 0 21.3086 0 21.2914 0C21.2742 0 21.2571 0 21.2398 0C21.2226 0 21.2054 0 21.1882 0C21.171 0 21.1537 0 21.1365 0C21.1192 0 21.102 0 21.0847 0C21.0674 0 21.0502 0 21.0329 0C21.0156 0 20.9983 0 20.981 0C20.9637 0 20.9464 0 20.929 0C20.9117 0 20.8944 0 20.877 0C20.8597 0 20.8424 0 20.825 0C20.8076 0 20.7903 0 20.7729 0C20.7555 0 20.7381 0 20.7207 0C20.7033 0 20.6859 0 20.6685 0C20.6511 0 20.6337 0 20.6162 0C20.5988 0 20.5814 0 20.5639 0C20.5465 0 20.529 0 20.5115 0C20.4941 0 20.4766 0 20.4591 0C20.4416 0 20.4241 0 20.4066 0C20.3891 0 20.3716 0 20.3541 0C20.3366 0 20.3191 0 20.3016 0C20.284 0 20.2665 0 20.2489 0C20.2314 0 20.2138 0 20.1963 0C20.1787 0 20.1611 0 20.1436 0C20.126 0 20.1084 0 20.0908 0C20.0732 0 20.0556 0 20.038 0C20.0204 0 20.0028 0 19.9852 0C19.9676 0 19.9499 0 19.9323 0C19.9147 0 19.897 0 19.8794 0C19.8617 0 19.8441 0 19.8264 0C19.8088 0 19.7911 0 19.7734 0C19.7557 0 19.7381 0 19.7204 0C19.7027 0 19.685 0 19.6673 0C19.6496 0 19.6319 0 19.6142 0C19.5965 0 19.5787 0 19.561 0C19.5433 0 19.5256 0 19.5078 0C19.4901 0 19.4723 0 19.4546 0C19.4368 0 19.4191 0 19.4013 0C19.3836 0 19.3658 0 19.348 0C19.3303 0 19.3125 0 19.2947 0C19.2769 0 19.2591 0 19.2413 0C19.2236 0 19.2058 0 19.188 0C19.1701 0 19.1523 0 19.1345 0C19.1167 0 19.0989 0 19.0811 0C19.0632 0 19.0454 0 19.0276 0C19.0098 0 18.9919 0 18.9741 0C18.9562 0 18.9384 0 18.9205 0C18.9027 0 18.8848 0 18.867 0C18.8491 0 18.8312 0 18.8134 0C18.7955 0 18.7776 0 18.7597 0C18.7419 0 18.724 0 18.7061 0C18.6882 0 18.6703 0 18.6524 0C18.6345 0 18.6166 0 18.5987 0C18.5808 0 18.5629 0 18.545 0C18.5271 0 18.5092 0 18.4913 0C18.4734 0 18.4554 0 18.4375 0C18.4196 0 18.4017 0 18.3837 0C18.3658 0 18.3479 0 18.3299 0C18.312 0 18.2941 0 18.2761 0C18.2582 0 18.2402 0 18.2223 0C18.2043 0 18.1864 0 18.1684 0C18.1505 0 18.1325 0 18.1146 0C18.0966 0 18.0786 0 18.0607 0C18.0427 0 18.0248 0 18.0068 0C17.9888 0 17.9708 0 17.9529 0C17.9349 0 17.9169 0 17.8989 0C17.881 0 17.863 0 17.845 0C17.827 0 17.809 0 17.791 0C17.7731 0 17.7551 0 17.7371 0C17.7191 0 17.7011 0 17.6831 0C17.6651 0 17.6471 0 17.6291 0C17.6111 0 17.5931 0 17.5751 0C17.5571 0 17.5391 0 17.5211 0C17.5031 0 17.4851 0 17.4671 0C17.4491 0 17.4311 0 17.4131 0C17.3951 0 17.3771 0 17.3591 0C17.3411 0 17.3231 0 17.3051 0C17.2871 0 17.269 0 17.251 0C17.233 0 17.215 0 17.197 0C17.179 0 17.161 0 17.143 0C17.125 0 17.1069 0 17.0889 0C17.0709 0 17.0529 0 17.0349 0C17.0169 0 16.9989 0 16.9808 0C16.9628 0 16.9448 0 16.9268 0C16.9088 0 16.8908 0 16.8728 0C16.8548 0 16.8367 0 16.8187 0C16.8007 0 16.7827 0 16.7647 0C16.7467 0 16.7287 0 16.7107 0C16.6927 0 16.6746 0 16.6566 0C16.6386 0 16.6206 0 16.6026 0C16.5846 0 16.5666 0 16.5486 0C16.5306 0 16.5126 0 16.4946 0C16.4766 0 16.4586 0 16.4406 0C16.4226 0 16.4046 0 16.3866 0C16.3686 0 16.3506 0 16.3326 0C16.3146 0 16.2966 0 16.2786 0C16.2606 0 16.2426 0 16.2247 0C16.2067 0 16.1887 0 16.1707 0C16.1527 0 16.1347 0 16.1168 0C16.0988 0 16.0808 0 16.0628 0C16.0448 0 16.0269 0 16.0089 0C15.9909 0 15.973 0 15.955 0C15.937 0 15.9191 0 15.9011 0C15.8831 0 15.8652 0 15.8472 0C15.8293 0 15.8113 0 15.7934 0C15.7754 0 15.7575 0 15.7395 0C15.7216 0 15.7036 0 15.6857 0C15.6678 0 15.6498 0 15.6319 0C15.614 0 15.596 0 15.5781 0C15.5602 0 15.5423 0 15.5243 0C15.5064 0 15.4885 0 15.4706 0C15.4527 0 15.4348 0 15.4169 0C15.399 0 15.3811 0 15.3632 0C15.3453 0 15.3274 0 15.3095 0C15.2916 0 15.2737 0 15.2558 0C15.238 0 15.2201 0 15.2022 0C15.1843 0 15.1665 0 15.1486 0C15.1307 0 15.1129 0 15.095 0C15.0772 0 15.0593 0 15.0415 0C15.0236 0 15.0058 0 14.988 0C14.9701 0 14.9523 0 14.9345 0C14.9166 0 14.8988 0 14.881 0C14.8632 0 14.8454 0 14.8276 0C14.8098 0 14.7919 0 14.7742 0C14.7564 0 14.7386 0 14.7208 0C14.703 0 14.6852 0 14.6674 0C14.6497 0 14.6319 0 14.6141 0C14.5964 0 14.5786 0 14.5609 0C14.5431 0 14.5254 0 14.5076 0C14.4899 0 14.4721 0 14.4544 0C14.4367 0 14.419 0 14.4012 0C14.3835 0 14.3658 0 14.3481 0C14.3304 0 14.3127 0 14.295 0C14.2773 0 14.2596 0 14.242 0C14.2243 0 14.2066 0 14.1889 0C14.1713 0 14.1536 0 14.136 0C14.1183 0 14.1007 0 14.083 0C14.0654 0 14.0478 0 14.0301 0C14.0125 0 13.9949 0 13.9773 0C13.9597 0 13.9421 0 13.9245 0C13.9069 0 13.8893 0 13.8717 0C13.8541 0 13.8365 0 13.819 0C13.8014 0 13.7838 0 13.7663 0C13.7487 0 13.7312 0 13.7137 0C13.6961 0 13.6786 0 13.6611 0C13.6436 0 13.626 0 13.6085 0C13.591 0 13.5735 0 13.5561 0C13.5386 0 13.5211 0 13.5036 0C13.4861 0 13.4687 0 13.4512 0C13.4338 0 13.4163 0 13.3989 0C13.3814 0 13.364 0 13.3466 0C13.3292 0 13.3118 0 13.2944 0C13.277 0 13.2596 0 13.2422 0C13.2248 0 13.2074 0 13.19 0C13.1727 0 13.1553 0 13.138 0C13.1206 0 13.1033 0 13.0859 0C13.0686 0 13.0513 0 13.034 0C13.0167 0 12.9994 0 12.9821 0C12.9648 0 12.9475 0 12.9302 0C12.913 0 12.8957 0 12.8784 0C12.8612 0 12.8439 0 12.8267 0C12.8095 0 12.7922 0 12.775 0C12.7578 0 12.7406 0 12.7234 0C12.7062 0 12.689 0 12.6719 0C12.6547 0 12.6375 0 12.6204 0C12.6032 0 12.5861 0 12.5689 0C12.5518 0 12.5347 0 12.5176 0C12.5005 0 12.4834 0 12.4663 0C12.4492 0 12.4321 0 12.415 0C12.398 0 12.3809 0 12.3639 0C12.3468 0 12.3298 0 12.3128 0C12.2957 0 12.2787 0 12.2617 0C12.2447 0 12.2277 0 12.2108 0C12.1938 0 12.1768 0 12.1599 0C12.1429 0 12.126 0 12.109 0C12.0921 0 12.0752 0 12.0583 0C12.0414 0 12.0245 0 12.0076 0C11.9907 0 11.9738 0 11.957 0C11.9401 0 11.9233 0 11.9064 0C11.8896 0 11.8728 0 11.856 0C11.8392 0 11.8224 0 11.8056 0C11.7888 0 11.772 0 11.7552 0C11.7385 0 11.7217 0 11.705 0C11.6883 0 11.6715 0 11.6548 0C11.6381 0 11.6214 0 11.6047 0C11.5881 0 11.5714 0 11.5547 0C11.5381 0 11.5214 0 11.5048 0C11.4882 0 11.4715 0 11.4549 0C11.4383 0 11.4217 0 11.4052 0C11.3886 0 11.372 0 11.3555 0C11.3389 0 11.3224 0 11.3059 0C11.2893 0 11.2728 0 11.2563 0C11.2398 0 11.2233 0 11.2069 0C11.1904 0 11.174 0 11.1575 0C11.1411 0 11.1246 0 11.1082 0C11.0918 0 11.0754 0 11.059 0C11.0427 0 11.0263 0 11.0099 0C10.9936 0 10.9772 0 10.9609 0C10.9446 0 10.9283 0 10.912 0C10.8957 0 10.8794 0 10.8631 0C10.8469 0 10.8306 0 10.8144 0C10.7982 0 10.7819 0 10.7657 0C10.7495 0 10.7333 0 10.7172 0C10.701 0 10.6848 0 10.6687 0C10.6525 0 10.6364 0 10.6203 0C10.6042 0 10.5881 0 10.572 0C10.5559 0 10.5398 0 10.5238 0C10.5077 0 10.4917 0 10.4757 0C10.4597 0 10.4437 0 10.4277 0C10.4117 0 10.3957 0 10.3798 0C10.3638 0 10.3479 0 10.3319 0C10.316 0 10.3001 0 10.2842 0C10.2683 0 10.2525 0 10.2366 0C10.2207 0 10.2049 0 10.1891 0C10.1733 0 10.1574 0 10.1417 0C10.1259 0 10.1101 0 10.0943 0C10.0786 0 10.0628 0 10.0471 0C10.0314 0 10.0157 0 10 0V20ZM20.8999 12.5521L34.6809 64.7635L54.0187 59.6594L40.2376 7.44793L20.8999 12.5521ZM34.6761 64.7453C35.922 69.5018 39.1305 73.076 42.7779 75.3024L53.1984 58.2316C53.0854 58.1626 53.718 58.5116 54.0234 59.6776L34.6761 64.7453ZM42.7779 75.3024C46.422 77.5269 50.6659 78.5481 54.7795 78.4883L54.4889 58.4904C53.776 58.5007 53.3146 58.3026 53.1984 58.2316L42.7779 75.3024ZM54.6342 78.4893H104.616V58.4893H54.6342V78.4893ZM104.471 78.4883C108.584 78.5481 112.828 77.5269 116.472 75.3024L106.052 58.2316C105.936 58.3026 105.474 58.5007 104.761 58.4904L104.471 78.4883ZM116.472 75.3024C120.12 73.076 123.328 69.5018 124.574 64.7453L105.227 59.6776C105.532 58.5116 106.165 58.1626 106.052 58.2316L116.472 75.3024ZM124.599 64.6504L132.826 31.9354L113.43 27.0575L105.203 59.7725L124.599 64.6504ZM123.128 29.4964C123.128 19.4964 123.128 19.4964 123.127 19.4964C123.127 19.4964 123.126 19.4964 123.126 19.4964C123.125 19.4964 123.124 19.4964 123.123 19.4964C123.121 19.4964 123.12 19.4964 123.118 19.4964C123.117 19.4964 123.115 19.4964 123.113 19.4964C123.111 19.4964 123.109 19.4964 123.106 19.4964C123.104 19.4964 123.101 19.4964 123.098 19.4964C123.096 19.4964 123.093 19.4964 123.089 19.4964C123.086 19.4964 123.083 19.4964 123.079 19.4964C123.075 19.4964 123.072 19.4964 123.068 19.4964C123.064 19.4964 123.059 19.4964 123.055 19.4964C123.051 19.4964 123.046 19.4964 123.041 19.4964C123.036 19.4964 123.031 19.4964 123.026 19.4964C123.021 19.4964 123.016 19.4964 123.01 19.4964C123.004 19.4964 122.999 19.4964 122.993 19.4964C122.987 19.4964 122.981 19.4964 122.974 19.4964C122.968 19.4964 122.961 19.4964 122.954 19.4964C122.948 19.4964 122.941 19.4964 122.934 19.4964C122.927 19.4964 122.919 19.4964 122.912 19.4964C122.904 19.4964 122.896 19.4964 122.888 19.4964C122.881 19.4964 122.872 19.4964 122.864 19.4964C122.856 19.4964 122.847 19.4964 122.839 19.4964C122.83 19.4964 122.821 19.4964 122.812 19.4964C122.803 19.4964 122.794 19.4964 122.784 19.4964C122.775 19.4964 122.765 19.4964 122.755 19.4964C122.746 19.4964 122.736 19.4964 122.725 19.4964C122.715 19.4964 122.705 19.4964 122.694 19.4964C122.684 19.4964 122.673 19.4964 122.662 19.4964C122.651 19.4964 122.64 19.4964 122.628 19.4964C122.617 19.4964 122.606 19.4964 122.594 19.4964C122.582 19.4964 122.57 19.4964 122.558 19.4964C122.546 19.4964 122.534 19.4964 122.521 19.4964C122.509 19.4964 122.496 19.4964 122.483 19.4964C122.471 19.4964 122.458 19.4964 122.444 19.4964C122.431 19.4964 122.418 19.4964 122.404 19.4964C122.391 19.4964 122.377 19.4964 122.363 19.4964C122.349 19.4964 122.335 19.4964 122.321 19.4964C122.306 19.4964 122.292 19.4964 122.277 19.4964C122.263 19.4964 122.248 19.4964 122.233 19.4964C122.218 19.4964 122.202 19.4964 122.187 19.4964C122.172 19.4964 122.156 19.4964 122.14 19.4964C122.125 19.4964 122.109 19.4964 122.092 19.4964C122.076 19.4964 122.06 19.4964 122.044 19.4964C122.027 19.4964 122.01 19.4964 121.994 19.4964C121.977 19.4964 121.96 19.4964 121.943 19.4964C121.925 19.4964 121.908 19.4964 121.89 19.4964C121.873 19.4964 121.855 19.4964 121.837 19.4964C121.819 19.4964 121.801 19.4964 121.783 19.4964C121.765 19.4964 121.746 19.4964 121.728 19.4964C121.709 19.4964 121.69 19.4964 121.671 19.4964C121.652 19.4964 121.633 19.4964 121.614 19.4964C121.594 19.4964 121.575 19.4964 121.555 19.4964C121.536 19.4964 121.516 19.4964 121.496 19.4964C121.476 19.4964 121.455 19.4964 121.435 19.4964C121.415 19.4964 121.394 19.4964 121.373 19.4964C121.353 19.4964 121.332 19.4964 121.311 19.4964C121.29 19.4964 121.268 19.4964 121.247 19.4964C121.226 19.4964 121.204 19.4964 121.182 19.4964C121.16 19.4964 121.139 19.4964 121.116 19.4964C121.094 19.4964 121.072 19.4964 121.05 19.4964C121.027 19.4964 121.005 19.4964 120.982 19.4964C120.959 19.4964 120.936 19.4964 120.913 19.4964C120.89 19.4964 120.866 19.4964 120.843 19.4964C120.819 19.4964 120.796 19.4964 120.772 19.4964C120.748 19.4964 120.724 19.4964 120.7 19.4964C120.676 19.4964 120.652 19.4964 120.627 19.4964C120.603 19.4964 120.578 19.4964 120.553 19.4964C120.528 19.4964 120.503 19.4964 120.478 19.4964C120.453 19.4964 120.428 19.4964 120.402 19.4964C120.377 19.4964 120.351 19.4964 120.325 19.4964C120.3 19.4964 120.274 19.4964 120.248 19.4964C120.221 19.4964 120.195 19.4964 120.169 19.4964C120.142 19.4964 120.116 19.4964 120.089 19.4964C120.062 19.4964 120.035 19.4964 120.008 19.4964C119.981 19.4964 119.953 19.4964 119.926 19.4964C119.899 19.4964 119.871 19.4964 119.843 19.4964C119.815 19.4964 119.787 19.4964 119.759 19.4964C119.731 19.4964 119.703 19.4964 119.675 19.4964C119.646 19.4964 119.618 19.4964 119.589 19.4964C119.56 19.4964 119.531 19.4964 119.502 19.4964C119.473 19.4964 119.444 19.4964 119.414 19.4964C119.385 19.4964 119.355 19.4964 119.326 19.4964C119.296 19.4964 119.266 19.4964 119.236 19.4964C119.206 19.4964 119.176 19.4964 119.146 19.4964C119.115 19.4964 119.085 19.4964 119.054 19.4964C119.023 19.4964 118.993 19.4964 118.962 19.4964C118.931 19.4964 118.9 19.4964 118.868 19.4964C118.837 19.4964 118.806 19.4964 118.774 19.4964C118.742 19.4964 118.711 19.4964 118.679 19.4964C118.647 19.4964 118.615 19.4964 118.583 19.4964C118.55 19.4964 118.518 19.4964 118.486 19.4964C118.453 19.4964 118.42 19.4964 118.387 19.4964C118.355 19.4964 118.322 19.4964 118.289 19.4964C118.255 19.4964 118.222 19.4964 118.189 19.4964C118.155 19.4964 118.122 19.4964 118.088 19.4964C118.054 19.4964 118.02 19.4964 117.986 19.4964C117.952 19.4964 117.918 19.4964 117.884 19.4964C117.849 19.4964 117.815 19.4964 117.78 19.4964C117.745 19.4964 117.711 19.4964 117.676 19.4964C117.641 19.4964 117.606 19.4964 117.57 19.4964C117.535 19.4964 117.5 19.4964 117.464 19.4964C117.429 19.4964 117.393 19.4964 117.357 19.4964C117.321 19.4964 117.285 19.4964 117.249 19.4964C117.213 19.4964 117.177 19.4964 117.14 19.4964C117.104 19.4964 117.067 19.4964 117.03 19.4964C116.994 19.4964 116.957 19.4964 116.92 19.4964C116.883 19.4964 116.846 19.4964 116.808 19.4964C116.771 19.4964 116.734 19.4964 116.696 19.4964C116.658 19.4964 116.621 19.4964 116.583 19.4964C116.545 19.4964 116.507 19.4964 116.469 19.4964C116.43 19.4964 116.392 19.4964 116.354 19.4964C116.315 19.4964 116.276 19.4964 116.238 19.4964C116.199 19.4964 116.16 19.4964 116.121 19.4964C116.082 19.4964 116.043 19.4964 116.003 19.4964C115.964 19.4964 115.925 19.4964 115.885 19.4964C115.845 19.4964 115.806 19.4964 115.766 19.4964C115.726 19.4964 115.686 19.4964 115.646 19.4964C115.606 19.4964 115.565 19.4964 115.525 19.4964C115.484 19.4964 115.444 19.4964 115.403 19.4964C115.362 19.4964 115.321 19.4964 115.28 19.4964C115.239 19.4964 115.198 19.4964 115.157 19.4964C115.116 19.4964 115.074 19.4964 115.033 19.4964C114.991 19.4964 114.949 19.4964 114.908 19.4964C114.866 19.4964 114.824 19.4964 114.782 19.4964C114.74 19.4964 114.697 19.4964 114.655 19.4964C114.613 19.4964 114.57 19.4964 114.527 19.4964C114.485 19.4964 114.442 19.4964 114.399 19.4964C114.356 19.4964 114.313 19.4964 114.27 19.4964C114.227 19.4964 114.183 19.4964 114.14 19.4964C114.096 19.4964 114.053 19.4964 114.009 19.4964C113.965 19.4964 113.922 19.4964 113.878 19.4964C113.834 19.4964 113.789 19.4964 113.745 19.4964C113.701 19.4964 113.657 19.4964 113.612 19.4964C113.567 19.4964 113.523 19.4964 113.478 19.4964C113.433 19.4964 113.388 19.4964 113.343 19.4964C113.298 19.4964 113.253 19.4964 113.208 19.4964C113.163 19.4964 113.117 19.4964 113.072 19.4964C113.026 19.4964 112.98 19.4964 112.934 19.4964C112.889 19.4964 112.843 19.4964 112.797 19.4964C112.751 19.4964 112.704 19.4964 112.658 19.4964C112.612 19.4964 112.565 19.4964 112.519 19.4964C112.472 19.4964 112.425 19.4964 112.378 19.4964C112.332 19.4964 112.285 19.4964 112.238 19.4964C112.19 19.4964 112.143 19.4964 112.096 19.4964C112.049 19.4964 112.001 19.4964 111.953 19.4964C111.906 19.4964 111.858 19.4964 111.81 19.4964C111.762 19.4964 111.715 19.4964 111.666 19.4964C111.618 19.4964 111.57 19.4964 111.522 19.4964C111.473 19.4964 111.425 19.4964 111.376 19.4964C111.328 19.4964 111.279 19.4964 111.23 19.4964C111.181 19.4964 111.132 19.4964 111.083 19.4964C111.034 19.4964 110.985 19.4964 110.936 19.4964C110.886 19.4964 110.837 19.4964 110.787 19.4964C110.738 19.4964 110.688 19.4964 110.638 19.4964C110.589 19.4964 110.539 19.4964 110.489 19.4964C110.439 19.4964 110.388 19.4964 110.338 19.4964C110.288 19.4964 110.237 19.4964 110.187 19.4964C110.136 19.4964 110.086 19.4964 110.035 19.4964C109.984 19.4964 109.933 19.4964 109.882 19.4964C109.831 19.4964 109.78 19.4964 109.729 19.4964C109.678 19.4964 109.627 19.4964 109.575 19.4964C109.524 19.4964 109.472 19.4964 109.42 19.4964C109.369 19.4964 109.317 19.4964 109.265 19.4964C109.213 19.4964 109.161 19.4964 109.109 19.4964C109.057 19.4964 109.004 19.4964 108.952 19.4964C108.9 19.4964 108.847 19.4964 108.795 19.4964C108.742 19.4964 108.689 19.4964 108.636 19.4964C108.584 19.4964 108.531 19.4964 108.478 19.4964C108.424 19.4964 108.371 19.4964 108.318 19.4964C108.265 19.4964 108.211 19.4964 108.158 19.4964C108.104 19.4964 108.051 19.4964 107.997 19.4964C107.943 19.4964 107.889 19.4964 107.835 19.4964C107.782 19.4964 107.727 19.4964 107.673 19.4964C107.619 19.4964 107.565 19.4964 107.51 19.4964C107.456 19.4964 107.402 19.4964 107.347 19.4964C107.292 19.4964 107.238 19.4964 107.183 19.4964C107.128 19.4964 107.073 19.4964 107.018 19.4964C106.963 19.4964 106.908 19.4964 106.853 19.4964C106.797 19.4964 106.742 19.4964 106.686 19.4964C106.631 19.4964 106.575 19.4964 106.52 19.4964C106.464 19.4964 106.408 19.4964 106.352 19.4964C106.296 19.4964 106.24 19.4964 106.184 19.4964C106.128 19.4964 106.072 19.4964 106.016 19.4964C105.959 19.4964 105.903 19.4964 105.846 19.4964C105.79 19.4964 105.733 19.4964 105.676 19.4964C105.62 19.4964 105.563 19.4964 105.506 19.4964C105.449 19.4964 105.392 19.4964 105.335 19.4964C105.278 19.4964 105.22 19.4964 105.163 19.4964C105.106 19.4964 105.048 19.4964 104.991 19.4964C104.933 19.4964 104.876 19.4964 104.818 19.4964C104.76 19.4964 104.702 19.4964 104.644 19.4964C104.586 19.4964 104.528 19.4964 104.47 19.4964C104.412 19.4964 104.354 19.4964 104.295 19.4964C104.237 19.4964 104.179 19.4964 104.12 19.4964C104.061 19.4964 104.003 19.4964 103.944 19.4964C103.885 19.4964 103.826 19.4964 103.767 19.4964C103.709 19.4964 103.65 19.4964 103.59 19.4964C103.531 19.4964 103.472 19.4964 103.413 19.4964C103.353 19.4964 103.294 19.4964 103.234 19.4964C103.175 19.4964 103.115 19.4964 103.056 19.4964C102.996 19.4964 102.936 19.4964 102.876 19.4964C102.816 19.4964 102.756 19.4964 102.696 19.4964C102.636 19.4964 102.576 19.4964 102.516 19.4964C102.455 19.4964 102.395 19.4964 102.334 19.4964C102.274 19.4964 102.213 19.4964 102.153 19.4964C102.092 19.4964 102.031 19.4964 101.97 19.4964C101.91 19.4964 101.849 19.4964 101.788 19.4964C101.727 19.4964 101.666 19.4964 101.604 19.4964C101.543 19.4964 101.482 19.4964 101.42 19.4964C101.359 19.4964 101.298 19.4964 101.236 19.4964C101.174 19.4964 101.113 19.4964 101.051 19.4964C100.989 19.4964 100.927 19.4964 100.866 19.4964C100.804 19.4964 100.742 19.4964 100.68 19.4964C100.617 19.4964 100.555 19.4964 100.493 19.4964C100.431 19.4964 100.368 19.4964 100.306 19.4964C100.243 19.4964 100.181 19.4964 100.118 19.4964C100.056 19.4964 99.9929 19.4964 99.9301 19.4964C99.8673 19.4964 99.8044 19.4964 99.7414 19.4964C99.6785 19.4964 99.6154 19.4964 99.5523 19.4964C99.4891 19.4964 99.4259 19.4964 99.3626 19.4964C99.2993 19.4964 99.2359 19.4964 99.1724 19.4964C99.1089 19.4964 99.0454 19.4964 98.9817 19.4964C98.9181 19.4964 98.8543 19.4964 98.7905 19.4964C98.7267 19.4964 98.6628 19.4964 98.5988 19.4964C98.5349 19.4964 98.4708 19.4964 98.4066 19.4964C98.3425 19.4964 98.2783 19.4964 98.214 19.4964C98.1497 19.4964 98.0853 19.4964 98.0208 19.4964C97.9563 19.4964 97.8918 19.4964 97.8272 19.4964C97.7625 19.4964 97.6978 19.4964 97.633 19.4964C97.5682 19.4964 97.5034 19.4964 97.4384 19.4964C97.3735 19.4964 97.3084 19.4964 97.2433 19.4964C97.1782 19.4964 97.1131 19.4964 97.0478 19.4964C96.9825 19.4964 96.9172 19.4964 96.8518 19.4964C96.7863 19.4964 96.7208 19.4964 96.6553 19.4964C96.5897 19.4964 96.5241 19.4964 96.4583 19.4964C96.3926 19.4964 96.3268 19.4964 96.2609 19.4964C96.195 19.4964 96.1291 19.4964 96.0631 19.4964C95.997 19.4964 95.9309 19.4964 95.8647 19.4964C95.7986 19.4964 95.7323 19.4964 95.666 19.4964C95.5996 19.4964 95.5332 19.4964 95.4668 19.4964C95.4003 19.4964 95.3337 19.4964 95.2671 19.4964C95.2005 19.4964 95.1338 19.4964 95.067 19.4964C95.0003 19.4964 94.9334 19.4964 94.8665 19.4964C94.7996 19.4964 94.7326 19.4964 94.6655 19.4964C94.5985 19.4964 94.5313 19.4964 94.4641 19.4964C94.3969 19.4964 94.3297 19.4964 94.2623 19.4964C94.195 19.4964 94.1276 19.4964 94.0601 19.4964C93.9926 19.4964 93.925 19.4964 93.8574 19.4964C93.7898 19.4964 93.7221 19.4964 93.6544 19.4964C93.5866 19.4964 93.5188 19.4964 93.4509 19.4964C93.383 19.4964 93.315 19.4964 93.247 19.4964C93.1789 19.4964 93.1108 19.4964 93.0427 19.4964C92.9745 19.4964 92.9062 19.4964 92.8379 19.4964C92.7696 19.4964 92.7013 19.4964 92.6328 19.4964C92.5644 19.4964 92.4959 19.4964 92.4273 19.4964C92.3588 19.4964 92.2901 19.4964 92.2214 19.4964C92.1527 19.4964 92.084 19.4964 92.0151 19.4964C91.9463 19.4964 91.8774 19.4964 91.8085 19.4964C91.7395 19.4964 91.6705 19.4964 91.6014 19.4964C91.5323 19.4964 91.4632 19.4964 91.3939 19.4964C91.3247 19.4964 91.2555 19.4964 91.1861 19.4964C91.1168 19.4964 91.0474 19.4964 90.9779 19.4964C90.9085 19.4964 90.8389 19.4964 90.7694 19.4964C90.6998 19.4964 90.6301 19.4964 90.5604 19.4964C90.4907 19.4964 90.421 19.4964 90.3511 19.4964C90.2813 19.4964 90.2114 19.4964 90.1415 19.4964C90.0715 19.4964 90.0015 19.4964 89.9314 19.4964C89.8614 19.4964 89.7912 19.4964 89.7211 19.4964C89.6509 19.4964 89.5806 19.4964 89.5103 19.4964C89.44 19.4964 89.3697 19.4964 89.2993 19.4964C89.2288 19.4964 89.1584 19.4964 89.0878 19.4964C89.0173 19.4964 88.9467 19.4964 88.8761 19.4964C88.8054 19.4964 88.7347 19.4964 88.664 19.4964C88.5932 19.4964 88.5224 19.4964 88.4515 19.4964C88.3807 19.4964 88.3097 19.4964 88.2388 19.4964C88.1678 19.4964 88.0967 19.4964 88.0257 19.4964C87.9546 19.4964 87.8834 19.4964 87.8122 19.4964C87.741 19.4964 87.6698 19.4964 87.5985 19.4964C87.5272 19.4964 87.4558 19.4964 87.3844 19.4964C87.313 19.4964 87.2415 19.4964 87.17 19.4964C87.0985 19.4964 87.027 19.4964 86.9553 19.4964C86.8837 19.4964 86.812 19.4964 86.7403 19.4964C86.6686 19.4964 86.5968 19.4964 86.525 19.4964C86.4532 19.4964 86.3813 19.4964 86.3094 19.4964C86.2375 19.4964 86.1655 19.4964 86.0935 19.4964C86.0215 19.4964 85.9494 19.4964 85.8773 19.4964C85.8051 19.4964 85.733 19.4964 85.6608 19.4964C85.5885 19.4964 85.5163 19.4964 85.444 19.4964C85.3717 19.4964 85.2993 19.4964 85.2269 19.4964C85.1545 19.4964 85.082 19.4964 85.0095 19.4964C84.937 19.4964 84.8645 19.4964 84.7919 19.4964C84.7193 19.4964 84.6466 19.4964 84.5739 19.4964C84.5013 19.4964 84.4285 19.4964 84.3557 19.4964C84.283 19.4964 84.2101 19.4964 84.1373 19.4964C84.0644 19.4964 83.9915 19.4964 83.9185 19.4964C83.8456 19.4964 83.7726 19.4964 83.6995 19.4964C83.6265 19.4964 83.5534 19.4964 83.4803 19.4964C83.4071 19.4964 83.3339 19.4964 83.2607 19.4964C83.1875 19.4964 83.1143 19.4964 83.041 19.4964C82.9677 19.4964 82.8943 19.4964 82.8209 19.4964C82.7475 19.4964 82.6741 19.4964 82.6006 19.4964C82.5272 19.4964 82.4537 19.4964 82.3801 19.4964C82.3066 19.4964 82.233 19.4964 82.1594 19.4964C82.0857 19.4964 82.0121 19.4964 81.9384 19.4964C81.8647 19.4964 81.7909 19.4964 81.7171 19.4964C81.6433 19.4964 81.5695 19.4964 81.4957 19.4964C81.4218 19.4964 81.3479 19.4964 81.274 19.4964C81.2 19.4964 81.126 19.4964 81.052 19.4964C80.978 19.4964 80.904 19.4964 80.8299 19.4964C80.7558 19.4964 80.6817 19.4964 80.6075 19.4964C80.5334 19.4964 80.4592 19.4964 80.3849 19.4964C80.3107 19.4964 80.2364 19.4964 80.1621 19.4964C80.0878 19.4964 80.0135 19.4964 79.9391 19.4964C79.8648 19.4964 79.7904 19.4964 79.7159 19.4964C79.6415 19.4964 79.567 19.4964 79.4925 19.4964C79.418 19.4964 79.3435 19.4964 79.2689 19.4964C79.1943 19.4964 79.1197 19.4964 79.0451 19.4964C78.9705 19.4964 78.8958 19.4964 78.8211 19.4964C78.7464 19.4964 78.6717 19.4964 78.5969 19.4964C78.5221 19.4964 78.4473 19.4964 78.3725 19.4964C78.2977 19.4964 78.2228 19.4964 78.148 19.4964C78.0731 19.4964 77.9982 19.4964 77.9232 19.4964C77.8483 19.4964 77.7733 19.4964 77.6983 19.4964C77.6233 19.4964 77.5483 19.4964 77.4732 19.4964C77.3981 19.4964 77.3231 19.4964 77.2479 19.4964C77.1728 19.4964 77.0977 19.4964 77.0225 19.4964C76.9473 19.4964 76.8721 19.4964 76.7969 19.4964C76.7217 19.4964 76.6464 19.4964 76.5712 19.4964C76.4959 19.4964 76.4206 19.4964 76.3452 19.4964C76.2699 19.4964 76.1946 19.4964 76.1192 19.4964C76.0438 19.4964 75.9684 19.4964 75.893 19.4964C75.8175 19.4964 75.7421 19.4964 75.6666 19.4964C75.5911 19.4964 75.5156 19.4964 75.4401 19.4964C75.3646 19.4964 75.289 19.4964 75.2134 19.4964C75.1379 19.4964 75.0623 19.4964 74.9866 19.4964C74.911 19.4964 74.8354 19.4964 74.7597 19.4964C74.684 19.4964 74.6084 19.4964 74.5327 19.4964C74.4569 19.4964 74.3812 19.4964 74.3055 19.4964C74.2297 19.4964 74.1539 19.4964 74.0782 19.4964C74.0024 19.4964 73.9266 19.4964 73.8507 19.4964C73.7749 19.4964 73.699 19.4964 73.6232 19.4964C73.5473 19.4964 73.4714 19.4964 73.3955 19.4964C73.3196 19.4964 73.2437 19.4964 73.1677 19.4964C73.0918 19.4964 73.0158 19.4964 72.9398 19.4964C72.8639 19.4964 72.7879 19.4964 72.7118 19.4964C72.6358 19.4964 72.5598 19.4964 72.4837 19.4964C72.4077 19.4964 72.3316 19.4964 72.2555 19.4964C72.1795 19.4964 72.1034 19.4964 72.0273 19.4964C71.9511 19.4964 71.875 19.4964 71.7989 19.4964C71.7227 19.4964 71.6466 19.4964 71.5704 19.4964C71.4942 19.4964 71.418 19.4964 71.3418 19.4964C71.2656 19.4964 71.1894 19.4964 71.1132 19.4964C71.037 19.4964 70.9607 19.4964 70.8845 19.4964C70.8082 19.4964 70.7319 19.4964 70.6557 19.4964C70.5794 19.4964 70.5031 19.4964 70.4268 19.4964C70.3505 19.4964 70.2742 19.4964 70.1978 19.4964C70.1215 19.4964 70.0452 19.4964 69.9688 19.4964C69.8925 19.4964 69.8161 19.4964 69.7398 19.4964C69.6634 19.4964 69.587 19.4964 69.5106 19.4964C69.4342 19.4964 69.3578 19.4964 69.2814 19.4964C69.205 19.4964 69.1286 19.4964 69.0522 19.4964C68.9757 19.4964 68.8993 19.4964 68.8229 19.4964C68.7464 19.4964 68.67 19.4964 68.5935 19.4964C68.5171 19.4964 68.4406 19.4964 68.3641 19.4964C68.2877 19.4964 68.2112 19.4964 68.1347 19.4964C68.0582 19.4964 67.9817 19.4964 67.9052 19.4964C67.8287 19.4964 67.7522 19.4964 67.6757 19.4964C67.5992 19.4964 67.5227 19.4964 67.4462 19.4964C67.3697 19.4964 67.2932 19.4964 67.2166 19.4964C67.1401 19.4964 67.0636 19.4964 66.9871 19.4964C66.9105 19.4964 66.834 19.4964 66.7574 19.4964C66.6809 19.4964 66.6044 19.4964 66.5278 19.4964C66.4513 19.4964 66.3747 19.4964 66.2982 19.4964C66.2216 19.4964 66.1451 19.4964 66.0685 19.4964C65.992 19.4964 65.9154 19.4964 65.8389 19.4964C65.7623 19.4964 65.6857 19.4964 65.6092 19.4964C65.5326 19.4964 65.4561 19.4964 65.3795 19.4964C65.303 19.4964 65.2264 19.4964 65.1498 19.4964C65.0733 19.4964 64.9967 19.4964 64.9202 19.4964C64.8436 19.4964 64.7671 19.4964 64.6905 19.4964C64.614 19.4964 64.5374 19.4964 64.4609 19.4964C64.3843 19.4964 64.3078 19.4964 64.2312 19.4964C64.1547 19.4964 64.0782 19.4964 64.0016 19.4964C63.9251 19.4964 63.8486 19.4964 63.772 19.4964C63.6955 19.4964 63.619 19.4964 63.5425 19.4964C63.4659 19.4964 63.3894 19.4964 63.3129 19.4964C63.2364 19.4964 63.1599 19.4964 63.0834 19.4964C63.0069 19.4964 62.9304 19.4964 62.8539 19.4964C62.7774 19.4964 62.701 19.4964 62.6245 19.4964C62.548 19.4964 62.4715 19.4964 62.3951 19.4964C62.3186 19.4964 62.2422 19.4964 62.1657 19.4964C62.0893 19.4964 62.0128 19.4964 61.9364 19.4964C61.86 19.4964 61.7835 19.4964 61.7071 19.4964C61.6307 19.4964 61.5543 19.4964 61.4779 19.4964C61.4015 19.4964 61.3251 19.4964 61.2488 19.4964C61.1724 19.4964 61.096 19.4964 61.0197 19.4964C60.9433 19.4964 60.867 19.4964 60.7906 19.4964C60.7143 19.4964 60.638 19.4964 60.5617 19.4964C60.4853 19.4964 60.409 19.4964 60.3328 19.4964C60.2565 19.4964 60.1802 19.4964 60.1039 19.4964C60.0277 19.4964 59.9514 19.4964 59.8752 19.4964C59.7989 19.4964 59.7227 19.4964 59.6465 19.4964C59.5703 19.4964 59.4941 19.4964 59.4179 19.4964C59.3417 19.4964 59.2656 19.4964 59.1894 19.4964C59.1132 19.4964 59.0371 19.4964 58.961 19.4964C58.8849 19.4964 58.8088 19.4964 58.7327 19.4964C58.6566 19.4964 58.5805 19.4964 58.5044 19.4964C58.4284 19.4964 58.3523 19.4964 58.2763 19.4964C58.2003 19.4964 58.1243 19.4964 58.0483 19.4964C57.9723 19.4964 57.8963 19.4964 57.8203 19.4964C57.7444 19.4964 57.6684 19.4964 57.5925 19.4964C57.5166 19.4964 57.4407 19.4964 57.3648 19.4964C57.2889 19.4964 57.2131 19.4964 57.1372 19.4964C57.0614 19.4964 56.9855 19.4964 56.9097 19.4964C56.8339 19.4964 56.7581 19.4964 56.6824 19.4964C56.6066 19.4964 56.5309 19.4964 56.4551 19.4964C56.3794 19.4964 56.3037 19.4964 56.228 19.4964C56.1524 19.4964 56.0767 19.4964 56.0011 19.4964C55.9254 19.4964 55.8498 19.4964 55.7742 19.4964C55.6986 19.4964 55.6231 19.4964 55.5475 19.4964C55.472 19.4964 55.3965 19.4964 55.321 19.4964C55.2455 19.4964 55.17 19.4964 55.0945 19.4964C55.0191 19.4964 54.9437 19.4964 54.8683 19.4964C54.7929 19.4964 54.7175 19.4964 54.6422 19.4964C54.5668 19.4964 54.4915 19.4964 54.4162 19.4964C54.3409 19.4964 54.2656 19.4964 54.1904 19.4964C54.1151 19.4964 54.0399 19.4964 53.9647 19.4964C53.8895 19.4964 53.8144 19.4964 53.7392 19.4964C53.6641 19.4964 53.589 19.4964 53.5139 19.4964C53.4388 19.4964 53.3638 19.4964 53.2887 19.4964C53.2137 19.4964 53.1387 19.4964 53.0638 19.4964C52.9888 19.4964 52.9139 19.4964 52.839 19.4964C52.764 19.4964 52.6892 19.4964 52.6143 19.4964C52.5395 19.4964 52.4647 19.4964 52.3899 19.4964C52.3151 19.4964 52.2403 19.4964 52.1656 19.4964C52.0909 19.4964 52.0162 19.4964 51.9416 19.4964C51.8669 19.4964 51.7923 19.4964 51.7177 19.4964C51.6431 19.4964 51.5685 19.4964 51.494 19.4964C51.4195 19.4964 51.345 19.4964 51.2705 19.4964C51.196 19.4964 51.1216 19.4964 51.0472 19.4964C50.9728 19.4964 50.8985 19.4964 50.8241 19.4964C50.7498 19.4964 50.6755 19.4964 50.6013 19.4964C50.527 19.4964 50.4528 19.4964 50.3786 19.4964C50.3044 19.4964 50.2303 19.4964 50.1562 19.4964C50.0821 19.4964 50.008 19.4964 49.9339 19.4964C49.8599 19.4964 49.7859 19.4964 49.7119 19.4964C49.638 19.4964 49.5641 19.4964 49.4902 19.4964C49.4163 19.4964 49.3424 19.4964 49.2686 19.4964C49.1948 19.4964 49.121 19.4964 49.0473 19.4964C48.9736 19.4964 48.8999 19.4964 48.8262 19.4964C48.7525 19.4964 48.6789 19.4964 48.6054 19.4964C48.5318 19.4964 48.4582 19.4964 48.3847 19.4964C48.3112 19.4964 48.2378 19.4964 48.1644 19.4964C48.091 19.4964 48.0176 19.4964 47.9443 19.4964C47.8709 19.4964 47.7976 19.4964 47.7244 19.4964C47.6511 19.4964 47.5779 19.4964 47.5048 19.4964C47.4316 19.4964 47.3585 19.4964 47.2854 19.4964C47.2123 19.4964 47.1393 19.4964 47.0663 19.4964C46.9933 19.4964 46.9204 19.4964 46.8475 19.4964C46.7746 19.4964 46.7017 19.4964 46.6289 19.4964C46.5561 19.4964 46.4833 19.4964 46.4106 19.4964C46.3379 19.4964 46.2652 19.4964 46.1926 19.4964C46.12 19.4964 46.0474 19.4964 45.9748 19.4964C45.9023 19.4964 45.8298 19.4964 45.7574 19.4964C45.6849 19.4964 45.6125 19.4964 45.5402 19.4964C45.4678 19.4964 45.3955 19.4964 45.3233 19.4964C45.251 19.4964 45.1788 19.4964 45.1067 19.4964C45.0345 19.4964 44.9624 19.4964 44.8904 19.4964C44.8183 19.4964 44.7463 19.4964 44.6743 19.4964C44.6024 19.4964 44.5305 19.4964 44.4586 19.4964C44.3867 19.4964 44.3149 19.4964 44.2432 19.4964C44.1714 19.4964 44.0997 19.4964 44.0281 19.4964C43.9564 19.4964 43.8848 19.4964 43.8133 19.4964C43.7417 19.4964 43.6702 19.4964 43.5988 19.4964C43.5273 19.4964 43.4559 19.4964 43.3846 19.4964C43.3132 19.4964 43.242 19.4964 43.1707 19.4964C43.0995 19.4964 43.0283 19.4964 42.9572 19.4964C42.886 19.4964 42.815 19.4964 42.744 19.4964C42.6729 19.4964 42.602 19.4964 42.5311 19.4964C42.4602 19.4964 42.3893 19.4964 42.3185 19.4964C42.2477 19.4964 42.177 19.4964 42.1063 19.4964C42.0356 19.4964 41.965 19.4964 41.8944 19.4964C41.8238 19.4964 41.7533 19.4964 41.6829 19.4964C41.6124 19.4964 41.542 19.4964 41.4717 19.4964C41.4013 19.4964 41.331 19.4964 41.2608 19.4964C41.1906 19.4964 41.1204 19.4964 41.0503 19.4964C40.9802 19.4964 40.9101 19.4964 40.8401 19.4964C40.7702 19.4964 40.7002 19.4964 40.6304 19.4964C40.5605 19.4964 40.4907 19.4964 40.4209 19.4964C40.3512 19.4964 40.2815 19.4964 40.2119 19.4964C40.1422 19.4964 40.0727 19.4964 40.0032 19.4964C39.9337 19.4964 39.8642 19.4964 39.7948 19.4964C39.7254 19.4964 39.6561 19.4964 39.5869 19.4964C39.5176 19.4964 39.4484 19.4964 39.3793 19.4964C39.3102 19.4964 39.2411 19.4964 39.1721 19.4964C39.1031 19.4964 39.0341 19.4964 38.9653 19.4964C38.8964 19.4964 38.8276 19.4964 38.7588 19.4964C38.6901 19.4964 38.6214 19.4964 38.5528 19.4964C38.4842 19.4964 38.4156 19.4964 38.3471 19.4964C38.2787 19.4964 38.2102 19.4964 38.1419 19.4964C38.0735 19.4964 38.0053 19.4964 37.937 19.4964C37.8688 19.4964 37.8007 19.4964 37.7326 19.4964C37.6645 19.4964 37.5965 19.4964 37.5285 19.4964C37.4606 19.4964 37.3927 19.4964 37.3249 19.4964C37.2571 19.4964 37.1894 19.4964 37.1217 19.4964C37.054 19.4964 36.9864 19.4964 36.9189 19.4964C36.8513 19.4964 36.7839 19.4964 36.7165 19.4964C36.6491 19.4964 36.5818 19.4964 36.5145 19.4964C36.4473 19.4964 36.3801 19.4964 36.313 19.4964C36.2459 19.4964 36.1788 19.4964 36.1119 19.4964C36.0449 19.4964 35.978 19.4964 35.9112 19.4964C35.8443 19.4964 35.7776 19.4964 35.7109 19.4964V39.4964C35.7776 39.4964 35.8443 39.4964 35.9112 39.4964C35.978 39.4964 36.0449 39.4964 36.1119 39.4964C36.1788 39.4964 36.2459 39.4964 36.313 39.4964C36.3801 39.4964 36.4473 39.4964 36.5145 39.4964C36.5818 39.4964 36.6491 39.4964 36.7165 39.4964C36.7839 39.4964 36.8513 39.4964 36.9189 39.4964C36.9864 39.4964 37.054 39.4964 37.1217 39.4964C37.1894 39.4964 37.2571 39.4964 37.3249 39.4964C37.3927 39.4964 37.4606 39.4964 37.5285 39.4964C37.5965 39.4964 37.6645 39.4964 37.7326 39.4964C37.8007 39.4964 37.8688 39.4964 37.937 39.4964C38.0053 39.4964 38.0735 39.4964 38.1419 39.4964C38.2102 39.4964 38.2787 39.4964 38.3471 39.4964C38.4156 39.4964 38.4842 39.4964 38.5528 39.4964C38.6214 39.4964 38.6901 39.4964 38.7588 39.4964C38.8276 39.4964 38.8964 39.4964 38.9653 39.4964C39.0341 39.4964 39.1031 39.4964 39.1721 39.4964C39.2411 39.4964 39.3102 39.4964 39.3793 39.4964C39.4484 39.4964 39.5176 39.4964 39.5869 39.4964C39.6561 39.4964 39.7254 39.4964 39.7948 39.4964C39.8642 39.4964 39.9337 39.4964 40.0032 39.4964C40.0727 39.4964 40.1422 39.4964 40.2119 39.4964C40.2815 39.4964 40.3512 39.4964 40.4209 39.4964C40.4907 39.4964 40.5605 39.4964 40.6304 39.4964C40.7002 39.4964 40.7702 39.4964 40.8401 39.4964C40.9101 39.4964 40.9802 39.4964 41.0503 39.4964C41.1204 39.4964 41.1906 39.4964 41.2608 39.4964C41.331 39.4964 41.4013 39.4964 41.4717 39.4964C41.542 39.4964 41.6124 39.4964 41.6829 39.4964C41.7533 39.4964 41.8238 39.4964 41.8944 39.4964C41.965 39.4964 42.0356 39.4964 42.1063 39.4964C42.177 39.4964 42.2477 39.4964 42.3185 39.4964C42.3893 39.4964 42.4602 39.4964 42.5311 39.4964C42.602 39.4964 42.6729 39.4964 42.744 39.4964C42.815 39.4964 42.886 39.4964 42.9572 39.4964C43.0283 39.4964 43.0995 39.4964 43.1707 39.4964C43.242 39.4964 43.3132 39.4964 43.3846 39.4964C43.4559 39.4964 43.5273 39.4964 43.5988 39.4964C43.6702 39.4964 43.7417 39.4964 43.8133 39.4964C43.8848 39.4964 43.9564 39.4964 44.0281 39.4964C44.0997 39.4964 44.1714 39.4964 44.2432 39.4964C44.3149 39.4964 44.3867 39.4964 44.4586 39.4964C44.5305 39.4964 44.6024 39.4964 44.6743 39.4964C44.7463 39.4964 44.8183 39.4964 44.8904 39.4964C44.9624 39.4964 45.0345 39.4964 45.1067 39.4964C45.1788 39.4964 45.251 39.4964 45.3233 39.4964C45.3955 39.4964 45.4678 39.4964 45.5402 39.4964C45.6125 39.4964 45.6849 39.4964 45.7574 39.4964C45.8298 39.4964 45.9023 39.4964 45.9748 39.4964C46.0474 39.4964 46.12 39.4964 46.1926 39.4964C46.2652 39.4964 46.3379 39.4964 46.4106 39.4964C46.4833 39.4964 46.5561 39.4964 46.6289 39.4964C46.7017 39.4964 46.7746 39.4964 46.8475 39.4964C46.9204 39.4964 46.9933 39.4964 47.0663 39.4964C47.1393 39.4964 47.2123 39.4964 47.2854 39.4964C47.3585 39.4964 47.4316 39.4964 47.5048 39.4964C47.5779 39.4964 47.6511 39.4964 47.7244 39.4964C47.7976 39.4964 47.8709 39.4964 47.9443 39.4964C48.0176 39.4964 48.091 39.4964 48.1644 39.4964C48.2378 39.4964 48.3112 39.4964 48.3847 39.4964C48.4582 39.4964 48.5318 39.4964 48.6054 39.4964C48.6789 39.4964 48.7525 39.4964 48.8262 39.4964C48.8999 39.4964 48.9736 39.4964 49.0473 39.4964C49.121 39.4964 49.1948 39.4964 49.2686 39.4964C49.3424 39.4964 49.4163 39.4964 49.4902 39.4964C49.5641 39.4964 49.638 39.4964 49.7119 39.4964C49.7859 39.4964 49.8599 39.4964 49.9339 39.4964C50.008 39.4964 50.0821 39.4964 50.1562 39.4964C50.2303 39.4964 50.3044 39.4964 50.3786 39.4964C50.4528 39.4964 50.527 39.4964 50.6013 39.4964C50.6755 39.4964 50.7498 39.4964 50.8241 39.4964C50.8985 39.4964 50.9728 39.4964 51.0472 39.4964C51.1216 39.4964 51.196 39.4964 51.2705 39.4964C51.345 39.4964 51.4195 39.4964 51.494 39.4964C51.5685 39.4964 51.6431 39.4964 51.7177 39.4964C51.7923 39.4964 51.8669 39.4964 51.9416 39.4964C52.0162 39.4964 52.0909 39.4964 52.1656 39.4964C52.2403 39.4964 52.3151 39.4964 52.3899 39.4964C52.4647 39.4964 52.5395 39.4964 52.6143 39.4964C52.6892 39.4964 52.764 39.4964 52.839 39.4964C52.9139 39.4964 52.9888 39.4964 53.0638 39.4964C53.1387 39.4964 53.2137 39.4964 53.2887 39.4964C53.3638 39.4964 53.4388 39.4964 53.5139 39.4964C53.589 39.4964 53.6641 39.4964 53.7392 39.4964C53.8144 39.4964 53.8895 39.4964 53.9647 39.4964C54.0399 39.4964 54.1151 39.4964 54.1904 39.4964C54.2656 39.4964 54.3409 39.4964 54.4162 39.4964C54.4915 39.4964 54.5668 39.4964 54.6422 39.4964C54.7175 39.4964 54.7929 39.4964 54.8683 39.4964C54.9437 39.4964 55.0191 39.4964 55.0945 39.4964C55.17 39.4964 55.2455 39.4964 55.321 39.4964C55.3965 39.4964 55.472 39.4964 55.5475 39.4964C55.6231 39.4964 55.6986 39.4964 55.7742 39.4964C55.8498 39.4964 55.9254 39.4964 56.0011 39.4964C56.0767 39.4964 56.1524 39.4964 56.228 39.4964C56.3037 39.4964 56.3794 39.4964 56.4551 39.4964C56.5309 39.4964 56.6066 39.4964 56.6824 39.4964C56.7581 39.4964 56.8339 39.4964 56.9097 39.4964C56.9855 39.4964 57.0614 39.4964 57.1372 39.4964C57.2131 39.4964 57.2889 39.4964 57.3648 39.4964C57.4407 39.4964 57.5166 39.4964 57.5925 39.4964C57.6684 39.4964 57.7444 39.4964 57.8203 39.4964C57.8963 39.4964 57.9723 39.4964 58.0483 39.4964C58.1243 39.4964 58.2003 39.4964 58.2763 39.4964C58.3523 39.4964 58.4284 39.4964 58.5044 39.4964C58.5805 39.4964 58.6566 39.4964 58.7327 39.4964C58.8088 39.4964 58.8849 39.4964 58.961 39.4964C59.0371 39.4964 59.1132 39.4964 59.1894 39.4964C59.2656 39.4964 59.3417 39.4964 59.4179 39.4964C59.4941 39.4964 59.5703 39.4964 59.6465 39.4964C59.7227 39.4964 59.7989 39.4964 59.8752 39.4964C59.9514 39.4964 60.0277 39.4964 60.1039 39.4964C60.1802 39.4964 60.2565 39.4964 60.3328 39.4964C60.409 39.4964 60.4853 39.4964 60.5617 39.4964C60.638 39.4964 60.7143 39.4964 60.7906 39.4964C60.867 39.4964 60.9433 39.4964 61.0197 39.4964C61.096 39.4964 61.1724 39.4964 61.2488 39.4964C61.3251 39.4964 61.4015 39.4964 61.4779 39.4964C61.5543 39.4964 61.6307 39.4964 61.7071 39.4964C61.7835 39.4964 61.86 39.4964 61.9364 39.4964C62.0128 39.4964 62.0893 39.4964 62.1657 39.4964C62.2422 39.4964 62.3186 39.4964 62.3951 39.4964C62.4715 39.4964 62.548 39.4964 62.6245 39.4964C62.701 39.4964 62.7774 39.4964 62.8539 39.4964C62.9304 39.4964 63.0069 39.4964 63.0834 39.4964C63.1599 39.4964 63.2364 39.4964 63.3129 39.4964C63.3894 39.4964 63.4659 39.4964 63.5425 39.4964C63.619 39.4964 63.6955 39.4964 63.772 39.4964C63.8486 39.4964 63.9251 39.4964 64.0016 39.4964C64.0782 39.4964 64.1547 39.4964 64.2312 39.4964C64.3078 39.4964 64.3843 39.4964 64.4609 39.4964C64.5374 39.4964 64.614 39.4964 64.6905 39.4964C64.7671 39.4964 64.8436 39.4964 64.9202 39.4964C64.9967 39.4964 65.0733 39.4964 65.1498 39.4964C65.2264 39.4964 65.303 39.4964 65.3795 39.4964C65.4561 39.4964 65.5326 39.4964 65.6092 39.4964C65.6857 39.4964 65.7623 39.4964 65.8389 39.4964C65.9154 39.4964 65.992 39.4964 66.0685 39.4964C66.1451 39.4964 66.2216 39.4964 66.2982 39.4964C66.3747 39.4964 66.4513 39.4964 66.5278 39.4964C66.6044 39.4964 66.6809 39.4964 66.7574 39.4964C66.834 39.4964 66.9105 39.4964 66.9871 39.4964C67.0636 39.4964 67.1401 39.4964 67.2166 39.4964C67.2932 39.4964 67.3697 39.4964 67.4462 39.4964C67.5227 39.4964 67.5992 39.4964 67.6757 39.4964C67.7522 39.4964 67.8287 39.4964 67.9052 39.4964C67.9817 39.4964 68.0582 39.4964 68.1347 39.4964C68.2112 39.4964 68.2877 39.4964 68.3641 39.4964C68.4406 39.4964 68.5171 39.4964 68.5935 39.4964C68.67 39.4964 68.7464 39.4964 68.8229 39.4964C68.8993 39.4964 68.9757 39.4964 69.0522 39.4964C69.1286 39.4964 69.205 39.4964 69.2814 39.4964C69.3578 39.4964 69.4342 39.4964 69.5106 39.4964C69.587 39.4964 69.6634 39.4964 69.7398 39.4964C69.8161 39.4964 69.8925 39.4964 69.9688 39.4964C70.0452 39.4964 70.1215 39.4964 70.1978 39.4964C70.2742 39.4964 70.3505 39.4964 70.4268 39.4964C70.5031 39.4964 70.5794 39.4964 70.6557 39.4964C70.7319 39.4964 70.8082 39.4964 70.8845 39.4964C70.9607 39.4964 71.037 39.4964 71.1132 39.4964C71.1894 39.4964 71.2656 39.4964 71.3418 39.4964C71.418 39.4964 71.4942 39.4964 71.5704 39.4964C71.6466 39.4964 71.7227 39.4964 71.7989 39.4964C71.875 39.4964 71.9511 39.4964 72.0273 39.4964C72.1034 39.4964 72.1795 39.4964 72.2555 39.4964C72.3316 39.4964 72.4077 39.4964 72.4837 39.4964C72.5598 39.4964 72.6358 39.4964 72.7118 39.4964C72.7879 39.4964 72.8639 39.4964 72.9398 39.4964C73.0158 39.4964 73.0918 39.4964 73.1677 39.4964C73.2437 39.4964 73.3196 39.4964 73.3955 39.4964C73.4714 39.4964 73.5473 39.4964 73.6232 39.4964C73.699 39.4964 73.7749 39.4964 73.8507 39.4964C73.9266 39.4964 74.0024 39.4964 74.0782 39.4964C74.1539 39.4964 74.2297 39.4964 74.3055 39.4964C74.3812 39.4964 74.4569 39.4964 74.5327 39.4964C74.6084 39.4964 74.684 39.4964 74.7597 39.4964C74.8354 39.4964 74.911 39.4964 74.9866 39.4964C75.0623 39.4964 75.1379 39.4964 75.2134 39.4964C75.289 39.4964 75.3646 39.4964 75.4401 39.4964C75.5156 39.4964 75.5911 39.4964 75.6666 39.4964C75.7421 39.4964 75.8175 39.4964 75.893 39.4964C75.9684 39.4964 76.0438 39.4964 76.1192 39.4964C76.1946 39.4964 76.2699 39.4964 76.3452 39.4964C76.4206 39.4964 76.4959 39.4964 76.5712 39.4964C76.6464 39.4964 76.7217 39.4964 76.7969 39.4964C76.8721 39.4964 76.9473 39.4964 77.0225 39.4964C77.0977 39.4964 77.1728 39.4964 77.2479 39.4964C77.3231 39.4964 77.3981 39.4964 77.4732 39.4964C77.5483 39.4964 77.6233 39.4964 77.6983 39.4964C77.7733 39.4964 77.8483 39.4964 77.9232 39.4964C77.9982 39.4964 78.0731 39.4964 78.148 39.4964C78.2228 39.4964 78.2977 39.4964 78.3725 39.4964C78.4473 39.4964 78.5221 39.4964 78.5969 39.4964C78.6717 39.4964 78.7464 39.4964 78.8211 39.4964C78.8958 39.4964 78.9705 39.4964 79.0451 39.4964C79.1197 39.4964 79.1943 39.4964 79.2689 39.4964C79.3435 39.4964 79.418 39.4964 79.4925 39.4964C79.567 39.4964 79.6415 39.4964 79.7159 39.4964C79.7904 39.4964 79.8648 39.4964 79.9391 39.4964C80.0135 39.4964 80.0878 39.4964 80.1621 39.4964C80.2364 39.4964 80.3107 39.4964 80.3849 39.4964C80.4592 39.4964 80.5334 39.4964 80.6075 39.4964C80.6817 39.4964 80.7558 39.4964 80.8299 39.4964C80.904 39.4964 80.978 39.4964 81.052 39.4964C81.126 39.4964 81.2 39.4964 81.274 39.4964C81.3479 39.4964 81.4218 39.4964 81.4957 39.4964C81.5695 39.4964 81.6433 39.4964 81.7171 39.4964C81.7909 39.4964 81.8647 39.4964 81.9384 39.4964C82.0121 39.4964 82.0857 39.4964 82.1594 39.4964C82.233 39.4964 82.3066 39.4964 82.3801 39.4964C82.4537 39.4964 82.5272 39.4964 82.6006 39.4964C82.6741 39.4964 82.7475 39.4964 82.8209 39.4964C82.8943 39.4964 82.9677 39.4964 83.041 39.4964C83.1143 39.4964 83.1875 39.4964 83.2607 39.4964C83.3339 39.4964 83.4071 39.4964 83.4803 39.4964C83.5534 39.4964 83.6265 39.4964 83.6995 39.4964C83.7726 39.4964 83.8456 39.4964 83.9185 39.4964C83.9915 39.4964 84.0644 39.4964 84.1373 39.4964C84.2101 39.4964 84.283 39.4964 84.3557 39.4964C84.4285 39.4964 84.5013 39.4964 84.5739 39.4964C84.6466 39.4964 84.7193 39.4964 84.7919 39.4964C84.8645 39.4964 84.937 39.4964 85.0095 39.4964C85.082 39.4964 85.1545 39.4964 85.2269 39.4964C85.2993 39.4964 85.3717 39.4964 85.444 39.4964C85.5163 39.4964 85.5885 39.4964 85.6608 39.4964C85.733 39.4964 85.8051 39.4964 85.8773 39.4964C85.9494 39.4964 86.0215 39.4964 86.0935 39.4964C86.1655 39.4964 86.2375 39.4964 86.3094 39.4964C86.3813 39.4964 86.4532 39.4964 86.525 39.4964C86.5968 39.4964 86.6686 39.4964 86.7403 39.4964C86.812 39.4964 86.8837 39.4964 86.9553 39.4964C87.027 39.4964 87.0985 39.4964 87.17 39.4964C87.2415 39.4964 87.313 39.4964 87.3844 39.4964C87.4558 39.4964 87.5272 39.4964 87.5985 39.4964C87.6698 39.4964 87.741 39.4964 87.8122 39.4964C87.8834 39.4964 87.9546 39.4964 88.0257 39.4964C88.0967 39.4964 88.1678 39.4964 88.2388 39.4964C88.3097 39.4964 88.3807 39.4964 88.4515 39.4964C88.5224 39.4964 88.5932 39.4964 88.664 39.4964C88.7347 39.4964 88.8054 39.4964 88.8761 39.4964C88.9467 39.4964 89.0173 39.4964 89.0878 39.4964C89.1584 39.4964 89.2288 39.4964 89.2993 39.4964C89.3697 39.4964 89.44 39.4964 89.5103 39.4964C89.5806 39.4964 89.6509 39.4964 89.7211 39.4964C89.7912 39.4964 89.8614 39.4964 89.9314 39.4964C90.0015 39.4964 90.0715 39.4964 90.1415 39.4964C90.2114 39.4964 90.2813 39.4964 90.3511 39.4964C90.421 39.4964 90.4907 39.4964 90.5604 39.4964C90.6301 39.4964 90.6998 39.4964 90.7694 39.4964C90.8389 39.4964 90.9085 39.4964 90.9779 39.4964C91.0474 39.4964 91.1168 39.4964 91.1861 39.4964C91.2555 39.4964 91.3247 39.4964 91.3939 39.4964C91.4632 39.4964 91.5323 39.4964 91.6014 39.4964C91.6705 39.4964 91.7395 39.4964 91.8085 39.4964C91.8774 39.4964 91.9463 39.4964 92.0151 39.4964C92.084 39.4964 92.1527 39.4964 92.2214 39.4964C92.2901 39.4964 92.3588 39.4964 92.4273 39.4964C92.4959 39.4964 92.5644 39.4964 92.6328 39.4964C92.7013 39.4964 92.7696 39.4964 92.8379 39.4964C92.9062 39.4964 92.9745 39.4964 93.0427 39.4964C93.1108 39.4964 93.1789 39.4964 93.247 39.4964C93.315 39.4964 93.383 39.4964 93.4509 39.4964C93.5188 39.4964 93.5866 39.4964 93.6544 39.4964C93.7221 39.4964 93.7898 39.4964 93.8574 39.4964C93.925 39.4964 93.9926 39.4964 94.0601 39.4964C94.1276 39.4964 94.195 39.4964 94.2623 39.4964C94.3297 39.4964 94.3969 39.4964 94.4641 39.4964C94.5313 39.4964 94.5985 39.4964 94.6655 39.4964C94.7326 39.4964 94.7996 39.4964 94.8665 39.4964C94.9334 39.4964 95.0003 39.4964 95.067 39.4964C95.1338 39.4964 95.2005 39.4964 95.2671 39.4964C95.3337 39.4964 95.4003 39.4964 95.4668 39.4964C95.5332 39.4964 95.5996 39.4964 95.666 39.4964C95.7323 39.4964 95.7986 39.4964 95.8647 39.4964C95.9309 39.4964 95.997 39.4964 96.0631 39.4964C96.1291 39.4964 96.195 39.4964 96.2609 39.4964C96.3268 39.4964 96.3926 39.4964 96.4583 39.4964C96.5241 39.4964 96.5897 39.4964 96.6553 39.4964C96.7208 39.4964 96.7863 39.4964 96.8518 39.4964C96.9172 39.4964 96.9825 39.4964 97.0478 39.4964C97.1131 39.4964 97.1782 39.4964 97.2433 39.4964C97.3084 39.4964 97.3735 39.4964 97.4384 39.4964C97.5034 39.4964 97.5682 39.4964 97.633 39.4964C97.6978 39.4964 97.7625 39.4964 97.8272 39.4964C97.8918 39.4964 97.9563 39.4964 98.0208 39.4964C98.0853 39.4964 98.1497 39.4964 98.214 39.4964C98.2783 39.4964 98.3425 39.4964 98.4066 39.4964C98.4708 39.4964 98.5349 39.4964 98.5988 39.4964C98.6628 39.4964 98.7267 39.4964 98.7905 39.4964C98.8543 39.4964 98.9181 39.4964 98.9817 39.4964C99.0454 39.4964 99.1089 39.4964 99.1724 39.4964C99.2359 39.4964 99.2993 39.4964 99.3626 39.4964C99.4259 39.4964 99.4891 39.4964 99.5523 39.4964C99.6154 39.4964 99.6785 39.4964 99.7414 39.4964C99.8044 39.4964 99.8673 39.4964 99.9301 39.4964C99.9929 39.4964 100.056 39.4964 100.118 39.4964C100.181 39.4964 100.243 39.4964 100.306 39.4964C100.368 39.4964 100.431 39.4964 100.493 39.4964C100.555 39.4964 100.617 39.4964 100.68 39.4964C100.742 39.4964 100.804 39.4964 100.866 39.4964C100.927 39.4964 100.989 39.4964 101.051 39.4964C101.113 39.4964 101.174 39.4964 101.236 39.4964C101.298 39.4964 101.359 39.4964 101.42 39.4964C101.482 39.4964 101.543 39.4964 101.604 39.4964C101.666 39.4964 101.727 39.4964 101.788 39.4964C101.849 39.4964 101.91 39.4964 101.97 39.4964C102.031 39.4964 102.092 39.4964 102.153 39.4964C102.213 39.4964 102.274 39.4964 102.334 39.4964C102.395 39.4964 102.455 39.4964 102.516 39.4964C102.576 39.4964 102.636 39.4964 102.696 39.4964C102.756 39.4964 102.816 39.4964 102.876 39.4964C102.936 39.4964 102.996 39.4964 103.056 39.4964C103.115 39.4964 103.175 39.4964 103.234 39.4964C103.294 39.4964 103.353 39.4964 103.413 39.4964C103.472 39.4964 103.531 39.4964 103.59 39.4964C103.65 39.4964 103.709 39.4964 103.767 39.4964C103.826 39.4964 103.885 39.4964 103.944 39.4964C104.003 39.4964 104.061 39.4964 104.12 39.4964C104.179 39.4964 104.237 39.4964 104.295 39.4964C104.354 39.4964 104.412 39.4964 104.47 39.4964C104.528 39.4964 104.586 39.4964 104.644 39.4964C104.702 39.4964 104.76 39.4964 104.818 39.4964C104.876 39.4964 104.933 39.4964 104.991 39.4964C105.048 39.4964 105.106 39.4964 105.163 39.4964C105.22 39.4964 105.278 39.4964 105.335 39.4964C105.392 39.4964 105.449 39.4964 105.506 39.4964C105.563 39.4964 105.62 39.4964 105.676 39.4964C105.733 39.4964 105.79 39.4964 105.846 39.4964C105.903 39.4964 105.959 39.4964 106.016 39.4964C106.072 39.4964 106.128 39.4964 106.184 39.4964C106.24 39.4964 106.296 39.4964 106.352 39.4964C106.408 39.4964 106.464 39.4964 106.52 39.4964C106.575 39.4964 106.631 39.4964 106.686 39.4964C106.742 39.4964 106.797 39.4964 106.853 39.4964C106.908 39.4964 106.963 39.4964 107.018 39.4964C107.073 39.4964 107.128 39.4964 107.183 39.4964C107.238 39.4964 107.292 39.4964 107.347 39.4964C107.402 39.4964 107.456 39.4964 107.51 39.4964C107.565 39.4964 107.619 39.4964 107.673 39.4964C107.727 39.4964 107.782 39.4964 107.835 39.4964C107.889 39.4964 107.943 39.4964 107.997 39.4964C108.051 39.4964 108.104 39.4964 108.158 39.4964C108.211 39.4964 108.265 39.4964 108.318 39.4964C108.371 39.4964 108.424 39.4964 108.478 39.4964C108.531 39.4964 108.584 39.4964 108.636 39.4964C108.689 39.4964 108.742 39.4964 108.795 39.4964C108.847 39.4964 108.9 39.4964 108.952 39.4964C109.004 39.4964 109.057 39.4964 109.109 39.4964C109.161 39.4964 109.213 39.4964 109.265 39.4964C109.317 39.4964 109.369 39.4964 109.42 39.4964C109.472 39.4964 109.524 39.4964 109.575 39.4964C109.627 39.4964 109.678 39.4964 109.729 39.4964C109.78 39.4964 109.831 39.4964 109.882 39.4964C109.933 39.4964 109.984 39.4964 110.035 39.4964C110.086 39.4964 110.136 39.4964 110.187 39.4964C110.237 39.4964 110.288 39.4964 110.338 39.4964C110.388 39.4964 110.439 39.4964 110.489 39.4964C110.539 39.4964 110.589 39.4964 110.638 39.4964C110.688 39.4964 110.738 39.4964 110.787 39.4964C110.837 39.4964 110.886 39.4964 110.936 39.4964C110.985 39.4964 111.034 39.4964 111.083 39.4964C111.132 39.4964 111.181 39.4964 111.23 39.4964C111.279 39.4964 111.328 39.4964 111.376 39.4964C111.425 39.4964 111.473 39.4964 111.522 39.4964C111.57 39.4964 111.618 39.4964 111.666 39.4964C111.715 39.4964 111.762 39.4964 111.81 39.4964C111.858 39.4964 111.906 39.4964 111.953 39.4964C112.001 39.4964 112.049 39.4964 112.096 39.4964C112.143 39.4964 112.19 39.4964 112.238 39.4964C112.285 39.4964 112.332 39.4964 112.378 39.4964C112.425 39.4964 112.472 39.4964 112.519 39.4964C112.565 39.4964 112.612 39.4964 112.658 39.4964C112.704 39.4964 112.751 39.4964 112.797 39.4964C112.843 39.4964 112.889 39.4964 112.934 39.4964C112.98 39.4964 113.026 39.4964 113.072 39.4964C113.117 39.4964 113.163 39.4964 113.208 39.4964C113.253 39.4964 113.298 39.4964 113.343 39.4964C113.388 39.4964 113.433 39.4964 113.478 39.4964C113.523 39.4964 113.567 39.4964 113.612 39.4964C113.657 39.4964 113.701 39.4964 113.745 39.4964C113.789 39.4964 113.834 39.4964 113.878 39.4964C113.922 39.4964 113.965 39.4964 114.009 39.4964C114.053 39.4964 114.096 39.4964 114.14 39.4964C114.183 39.4964 114.227 39.4964 114.27 39.4964C114.313 39.4964 114.356 39.4964 114.399 39.4964C114.442 39.4964 114.485 39.4964 114.527 39.4964C114.57 39.4964 114.613 39.4964 114.655 39.4964C114.697 39.4964 114.74 39.4964 114.782 39.4964C114.824 39.4964 114.866 39.4964 114.908 39.4964C114.949 39.4964 114.991 39.4964 115.033 39.4964C115.074 39.4964 115.116 39.4964 115.157 39.4964C115.198 39.4964 115.239 39.4964 115.28 39.4964C115.321 39.4964 115.362 39.4964 115.403 39.4964C115.444 39.4964 115.484 39.4964 115.525 39.4964C115.565 39.4964 115.606 39.4964 115.646 39.4964C115.686 39.4964 115.726 39.4964 115.766 39.4964C115.806 39.4964 115.845 39.4964 115.885 39.4964C115.925 39.4964 115.964 39.4964 116.003 39.4964C116.043 39.4964 116.082 39.4964 116.121 39.4964C116.16 39.4964 116.199 39.4964 116.238 39.4964C116.276 39.4964 116.315 39.4964 116.354 39.4964C116.392 39.4964 116.43 39.4964 116.469 39.4964C116.507 39.4964 116.545 39.4964 116.583 39.4964C116.621 39.4964 116.658 39.4964 116.696 39.4964C116.734 39.4964 116.771 39.4964 116.808 39.4964C116.846 39.4964 116.883 39.4964 116.92 39.4964C116.957 39.4964 116.994 39.4964 117.03 39.4964C117.067 39.4964 117.104 39.4964 117.14 39.4964C117.177 39.4964 117.213 39.4964 117.249 39.4964C117.285 39.4964 117.321 39.4964 117.357 39.4964C117.393 39.4964 117.429 39.4964 117.464 39.4964C117.5 39.4964 117.535 39.4964 117.57 39.4964C117.606 39.4964 117.641 39.4964 117.676 39.4964C117.711 39.4964 117.745 39.4964 117.78 39.4964C117.815 39.4964 117.849 39.4964 117.884 39.4964C117.918 39.4964 117.952 39.4964 117.986 39.4964C118.02 39.4964 118.054 39.4964 118.088 39.4964C118.122 39.4964 118.155 39.4964 118.189 39.4964C118.222 39.4964 118.255 39.4964 118.289 39.4964C118.322 39.4964 118.355 39.4964 118.387 39.4964C118.42 39.4964 118.453 39.4964 118.486 39.4964C118.518 39.4964 118.55 39.4964 118.583 39.4964C118.615 39.4964 118.647 39.4964 118.679 39.4964C118.711 39.4964 118.742 39.4964 118.774 39.4964C118.806 39.4964 118.837 39.4964 118.868 39.4964C118.9 39.4964 118.931 39.4964 118.962 39.4964C118.993 39.4964 119.023 39.4964 119.054 39.4964C119.085 39.4964 119.115 39.4964 119.146 39.4964C119.176 39.4964 119.206 39.4964 119.236 39.4964C119.266 39.4964 119.296 39.4964 119.326 39.4964C119.355 39.4964 119.385 39.4964 119.414 39.4964C119.444 39.4964 119.473 39.4964 119.502 39.4964C119.531 39.4964 119.56 39.4964 119.589 39.4964C119.618 39.4964 119.646 39.4964 119.675 39.4964C119.703 39.4964 119.731 39.4964 119.759 39.4964C119.787 39.4964 119.815 39.4964 119.843 39.4964C119.871 39.4964 119.899 39.4964 119.926 39.4964C119.953 39.4964 119.981 39.4964 120.008 39.4964C120.035 39.4964 120.062 39.4964 120.089 39.4964C120.116 39.4964 120.142 39.4964 120.169 39.4964C120.195 39.4964 120.221 39.4964 120.248 39.4964C120.274 39.4964 120.3 39.4964 120.325 39.4964C120.351 39.4964 120.377 39.4964 120.402 39.4964C120.428 39.4964 120.453 39.4964 120.478 39.4964C120.503 39.4964 120.528 39.4964 120.553 39.4964C120.578 39.4964 120.603 39.4964 120.627 39.4964C120.652 39.4964 120.676 39.4964 120.7 39.4964C120.724 39.4964 120.748 39.4964 120.772 39.4964C120.796 39.4964 120.819 39.4964 120.843 39.4964C120.866 39.4964 120.89 39.4964 120.913 39.4964C120.936 39.4964 120.959 39.4964 120.982 39.4964C121.005 39.4964 121.027 39.4964 121.05 39.4964C121.072 39.4964 121.094 39.4964 121.116 39.4964C121.139 39.4964 121.16 39.4964 121.182 39.4964C121.204 39.4964 121.226 39.4964 121.247 39.4964C121.268 39.4964 121.29 39.4964 121.311 39.4964C121.332 39.4964 121.353 39.4964 121.373 39.4964C121.394 39.4964 121.415 39.4964 121.435 39.4964C121.455 39.4964 121.476 39.4964 121.496 39.4964C121.516 39.4964 121.536 39.4964 121.555 39.4964C121.575 39.4964 121.594 39.4964 121.614 39.4964C121.633 39.4964 121.652 39.4964 121.671 39.4964C121.69 39.4964 121.709 39.4964 121.728 39.4964C121.746 39.4964 121.765 39.4964 121.783 39.4964C121.801 39.4964 121.819 39.4964 121.837 39.4964C121.855 39.4964 121.873 39.4964 121.89 39.4964C121.908 39.4964 121.925 39.4964 121.943 39.4964C121.96 39.4964 121.977 39.4964 121.994 39.4964C122.01 39.4964 122.027 39.4964 122.044 39.4964C122.06 39.4964 122.076 39.4964 122.092 39.4964C122.109 39.4964 122.125 39.4964 122.14 39.4964C122.156 39.4964 122.172 39.4964 122.187 39.4964C122.202 39.4964 122.218 39.4964 122.233 39.4964C122.248 39.4964 122.263 39.4964 122.277 39.4964C122.292 39.4964 122.306 39.4964 122.321 39.4964C122.335 39.4964 122.349 39.4964 122.363 39.4964C122.377 39.4964 122.391 39.4964 122.404 39.4964C122.418 39.4964 122.431 39.4964 122.444 39.4964C122.458 39.4964 122.471 39.4964 122.483 39.4964C122.496 39.4964 122.509 39.4964 122.521 39.4964C122.534 39.4964 122.546 39.4964 122.558 39.4964C122.57 39.4964 122.582 39.4964 122.594 39.4964C122.606 39.4964 122.617 39.4964 122.628 39.4964C122.64 39.4964 122.651 39.4964 122.662 39.4964C122.673 39.4964 122.684 39.4964 122.694 39.4964C122.705 39.4964 122.715 39.4964 122.725 39.4964C122.736 39.4964 122.746 39.4964 122.755 39.4964C122.765 39.4964 122.775 39.4964 122.784 39.4964C122.794 39.4964 122.803 39.4964 122.812 39.4964C122.821 39.4964 122.83 39.4964 122.839 39.4964C122.847 39.4964 122.856 39.4964 122.864 39.4964C122.872 39.4964 122.881 39.4964 122.888 39.4964C122.896 39.4964 122.904 39.4964 122.912 39.4964C122.919 39.4964 122.927 39.4964 122.934 39.4964C122.941 39.4964 122.948 39.4964 122.954 39.4964C122.961 39.4964 122.968 39.4964 122.974 39.4964C122.981 39.4964 122.987 39.4964 122.993 39.4964C122.999 39.4964 123.004 39.4964 123.01 39.4964C123.016 39.4964 123.021 39.4964 123.026 39.4964C123.031 39.4964 123.036 39.4964 123.041 39.4964C123.046 39.4964 123.051 39.4964 123.055 39.4964C123.059 39.4964 123.064 39.4964 123.068 39.4964C123.072 39.4964 123.075 39.4964 123.079 39.4964C123.083 39.4964 123.086 39.4964 123.089 39.4964C123.093 39.4964 123.096 39.4964 123.098 39.4964C123.101 39.4964 123.104 39.4964 123.106 39.4964C123.109 39.4964 123.111 39.4964 123.113 39.4964C123.115 39.4964 123.117 39.4964 123.118 39.4964C123.12 39.4964 123.121 39.4964 123.123 39.4964C123.124 39.4964 123.125 39.4964 123.126 39.4964C123.126 39.4964 123.127 39.4964 123.127 39.4964C123.128 39.4964 123.128 39.4964 123.128 29.4964Z" fill="#C7C7C7" mask="url(#path-3-outside-1)"/>
</svg>
